<?xml version="1.0" encoding="utf-8" ?>
<svg xmlns="http://www.w3.org/2000/svg" xmlns:xlink="http://www.w3.org/1999/xlink" width="4923" height="4923">
	<path fill="#FEFEFE" transform="scale(4.80758 4.80758)" d="M0 0L1024 0L1024 1024L0 1024L0 0Z"/>
	<path fill="#231F20" transform="scale(4.80758 4.80758)" d="M371.356 502.192C371.789 502.206 372.362 502.204 372.773 502.323C374.109 502.712 374.355 503.129 374.985 504.249C374.956 505.904 374.287 506.761 373.397 508.072C373.006 508.06 372.331 508.059 371.966 507.958C370.817 507.639 370.624 507.004 370.098 506.047C370.128 504.312 370.438 503.666 371.356 502.192Z"/>
	<path fill="#4C484A" transform="scale(4.80758 4.80758)" d="M747.615 267.081C748.627 263.971 750.008 261.85 752.246 259.466L753.274 262.044C752.496 263.755 751.669 265.457 751.065 267.238C749.762 267.365 748.897 267.45 747.615 267.081Z"/>
	<path fill="#231F20" transform="scale(4.80758 4.80758)" d="M907.046 636.311C906.055 635.136 904.908 634.121 904.808 632.512L905.394 631.448C906.511 631.214 906.692 631.153 907.725 631.792C909.075 632.626 909.603 634.04 909.867 635.53C910.076 636.707 910.059 637.925 910.053 639.117C909.79 638.236 909.468 637.572 909.048 636.761C907.651 636.829 908.47 638.138 907.219 638.635L907.046 636.311Z"/>
	<path fill="#4C484A" transform="scale(4.80758 4.80758)" d="M606.463 348.306C606.132 347.551 605.875 346.752 605.591 345.978C605.839 344.498 605.854 344.472 606.955 343.452C610.519 342.36 614.266 343.195 617.884 343.694C615.835 344.312 612.663 344.713 610.873 345.6C608.943 346.038 607.897 347.001 606.463 348.306Z"/>
	<path fill="#231F20" transform="scale(4.80758 4.80758)" d="M540.082 322.503C541.293 322.86 542.491 323.269 543.752 323.408C543.016 326.937 542.506 330.47 542.026 334.041C541.106 333.187 541.054 333.032 539.826 332.894L538.303 334.301C538.754 330.334 539.377 326.432 540.082 322.503Z"/>
	<path fill="#231F20" transform="scale(4.80758 4.80758)" d="M65.0216 574.857C66.1401 574.916 66.8253 574.809 67.847 574.397C68.6897 574.058 69.378 573.824 70.2904 573.704C69.0741 575.007 67.7622 576.328 66.7996 577.834C65.3069 580.167 63.1335 585.92 60.4543 586.86C59.8206 585.942 60.1149 584.716 60.2929 583.632C60.7894 580.612 62.7128 576.891 65.0216 574.857Z"/>
	<path fill="#4C484A" transform="scale(4.80758 4.80758)" d="M208.993 553.776C211.854 559.729 213.895 565.5 214.225 572.141L213.821 572.598C213.678 571.96 213.551 571.142 213.299 570.526C212.682 569.022 212.517 568.97 211.091 568.373C208.953 563.318 207.344 558.269 204.799 553.365C205.607 554.024 206.347 554.803 207.104 555.522L207.973 555.354L208.993 553.776Z"/>
	<path fill="#231F20" transform="scale(4.80758 4.80758)" d="M257.977 281.039C259.898 280.978 261.994 280.987 263.805 281.717C265.756 282.502 266.797 284.181 267.613 286.022C267.876 286.616 267.838 286.31 267.562 287.019C263.881 286.445 263.312 283.549 258.563 283.513L257.965 283.513C256.147 285.029 255.155 285.925 254.58 288.289C254.274 289.55 253.952 290.55 253.403 291.724L251.768 291.807L251.78 291.861C251.651 289.902 251.747 287.932 252.423 286.065C253.457 283.209 255.338 282.188 257.977 281.039Z"/>
	<path fill="#231F20" transform="scale(4.80758 4.80758)" d="M747.615 267.081C748.897 267.45 749.762 267.365 751.065 267.238C749.297 271.967 747.87 277.043 746.966 282.015L746.211 284.741C745.01 284.783 743.951 284.876 742.799 284.454L742.435 283.167L742.478 282.643C743.367 277.295 745.496 272.038 747.615 267.081Z"/>
	<path fill="#4C484A" transform="scale(4.80758 4.80758)" d="M265.747 259.013C269.25 259.102 272.304 259.991 274.832 262.539C276.659 264.381 278.23 267.208 278.252 269.854C278.254 270.074 278.22 270.293 278.203 270.513L277.591 271.011C275.466 269.704 274.97 267.518 274.091 265.265C270.311 262.686 268.058 261.593 263.36 262.209C261.848 262.576 260.435 263.258 258.895 263.469C257.99 263.594 258.342 263.635 257.572 263.069L257.944 262.02C260.517 259.611 262.374 259.416 265.747 259.013Z"/>
	<path fill="#231F20" transform="scale(4.80758 4.80758)" d="M758.728 686.565C752.998 686.757 736.566 686.695 731.961 683.76C731.032 683.168 731.042 682.991 730.853 681.978C731.659 680.75 731.556 680.738 732.973 680.405C740.674 683.415 750.7 683.662 758.873 683.419L758.728 686.565Z"/>
	<defs>
		<linearGradient id="gradient_0" gradientUnits="userSpaceOnUse" x1="746.65997" y1="301.47269" x2="735.84991" y2="292.62625">
			<stop offset="0" stop-color="#363433"/>
			<stop offset="1" stop-color="#4F4143"/>
		</linearGradient>
	</defs>
	<path fill="url(#gradient_0)" transform="scale(4.80758 4.80758)" d="M742.435 283.167L742.799 284.454C743.951 284.876 745.01 284.783 746.211 284.741C744.433 292.215 741.17 301.973 741.621 309.683C740.084 310.564 739.068 310.867 737.309 311.029C738.566 301.52 739.742 292.428 742.435 283.167Z"/>
	<defs>
		<linearGradient id="gradient_1" gradientUnits="userSpaceOnUse" x1="65.245079" y1="659.38135" x2="57.080864" y2="672.11047">
			<stop offset="0" stop-color="#313537"/>
			<stop offset="1" stop-color="#574B4A"/>
		</linearGradient>
	</defs>
	<path fill="url(#gradient_1)" transform="scale(4.80758 4.80758)" d="M79.1456 686.811C78.9758 686.758 78.8029 686.714 78.6364 686.651C68.3436 682.784 52.7592 669.41 48.4083 658.93C47.1997 656.019 45.1504 649.623 46.3476 646.659L46.8642 647.584L47.8718 646.9C49.8657 648.729 49.9499 651.794 50.5501 654.312C53.612 667.153 65.4839 675.035 76.009 681.537C76.6925 684.198 77.6801 684.933 79.8687 686.576L79.1456 686.811Z"/>
	<path fill="#231F20" transform="scale(4.80758 4.80758)" d="M295.169 802.547C297.444 802.823 300.83 802.973 302.8 804.211C303.788 804.831 304.615 805.586 304.787 806.783C304.966 808.029 304.687 808.924 303.963 809.948C301.29 813.728 296.843 814.542 292.614 815.425C290.364 815.644 287.855 815.883 285.688 815.104C284.1 814.533 283.533 813.72 282.815 812.255C282.811 810.934 282.963 810.069 283.641 808.913C286.083 804.749 290.793 803.525 295.169 802.547Z"/>
	<path fill="#231F20" transform="scale(4.80758 4.80758)" d="M654.096 759.049C656.535 758.901 659.772 758.799 661.918 760.171C662.94 760.824 663.722 761.636 663.912 762.883C664.121 764.253 663.543 765.654 662.74 766.738C660.062 770.352 655.585 771.305 651.393 771.891C650.664 771.899 649.949 771.903 649.221 771.844C646.362 771.611 643.989 771.353 642.045 769.118C641.732 767.714 641.631 767.01 642.28 765.68C644.347 761.446 649.983 760.17 654.096 759.049Z"/>
	<path fill="#231F20" transform="scale(4.80758 4.80758)" d="M364.106 349.973L363.419 349.048L363.653 348.424C366.011 347.556 369.114 348.539 371.442 349.152C370.519 350.539 369.785 351.467 368.423 352.439C365.886 353.927 361.375 355.062 359.425 356.932C361.535 356.366 364.804 355.807 366.838 356.884C367.811 357.399 368.684 358.1 368.932 359.195C369.097 359.924 369.152 360.565 369.179 361.306C369.101 361.492 369.03 361.681 368.945 361.863C368.211 363.438 367.532 364.367 365.828 364.91C362.793 365.876 336.966 367.134 334.698 365.878L334.679 365.058C337.892 362.751 358.714 363.332 363.942 361.749C364.226 361.662 364.507 361.564 364.789 361.471L362.297 360.547C358.107 360.304 353.645 361.292 349.566 360.333C348.886 359.221 348.906 358.377 349.224 357.075C349.532 355.813 349.915 355.065 351.033 354.434C355.855 355.332 358.891 352.124 363.41 351.303L364.106 349.973Z"/>
	<path fill="#565051" transform="scale(4.80758 4.80758)" d="M65.0216 574.857C68.4937 570.936 72.6096 567.651 76.958 564.752C84.4153 559.78 92.7626 555.999 100.708 551.884C110.362 546.885 119.685 542.138 129.72 537.959C132.178 536.935 134.568 535.553 137.078 534.68C138.211 534.286 138.879 534.145 139.945 534.743L139.921 535.985C138.34 538.144 123.571 543.901 120.013 545.557C105.215 552.442 82.6438 563.654 70.2904 573.704C69.378 573.824 68.6897 574.058 67.847 574.397C66.8253 574.809 66.1401 574.916 65.0216 574.857Z"/>
	<path fill="#4C484A" transform="scale(4.80758 4.80758)" d="M157.302 752.614C159.558 752.343 162.352 752.202 164.545 752.877C166.076 753.349 166.438 753.977 167.123 755.297C167.102 756.412 167.034 757.204 166.5 758.204C163.932 763.016 158.489 764.909 153.561 766.258C150.668 766.931 146.149 767.817 143.552 765.881C142.934 765.42 142.542 764.814 142.428 764.061C142.187 762.471 142.829 761.052 143.699 759.75C146.893 754.967 151.974 753.527 157.302 752.614Z"/>
	<defs>
		<linearGradient id="gradient_2" gradientUnits="userSpaceOnUse" x1="328.49304" y1="345.16284" x2="351.83014" y2="324.20886">
			<stop offset="0" stop-color="#342F2F"/>
			<stop offset="1" stop-color="#4F494A"/>
		</linearGradient>
	</defs>
	<path fill="url(#gradient_2)" transform="scale(4.80758 4.80758)" d="M361.801 333.25C354.815 335.201 348.618 338.726 341.793 340.942C340.36 341.407 339.105 341.748 337.699 341.005C335.016 335.016 346.606 326.026 346.29 321.448L345.361 321.265C336.176 324.468 335.468 336.09 329.974 342.585C329.025 343.707 327.881 344.727 326.363 344.828L326 343.985C327.01 338.63 335.134 324.4 339.315 320.932C341.392 319.209 344.916 317.156 347.756 317.77C348.628 317.959 349.348 318.423 349.645 319.282C351.083 323.44 342.294 333.998 340.168 338.44C345.578 335.781 351.098 333.395 356.626 330.994C357.735 331.598 358.839 332.234 359.959 332.813C360.634 333.162 361.06 333.226 361.801 333.25Z"/>
	<path fill="#565051" transform="scale(4.80758 4.80758)" d="M540.322 359.672L540.839 360.286C541.16 360.283 541.481 360.275 541.803 360.275C542.725 360.276 543.181 360.361 543.951 360.912L543.343 366.521C554.288 366.563 568.513 369.571 576.61 377.56C578.037 378.968 579.498 380.982 579.644 383.056C579.738 384.384 579.201 385.404 578.303 386.333C574.432 390.337 562.968 390.014 557.604 389.706L558.343 388.036C559.42 387.388 559.93 386.958 560.593 385.886C564.127 385.294 570.242 386.579 573.291 385.192C574.523 384.632 574.962 384.028 575.535 382.844C575.377 381.522 575.136 380.943 574.148 380.009C567.409 373.638 549.617 369.889 540.596 370.22C539.909 368.261 539.807 367.142 537.918 366.057L539.424 365.748C540.394 363.969 539.826 362.49 540.162 360.539C540.212 360.25 540.268 359.961 540.322 359.672Z"/>
	<path fill="#231F20" transform="scale(4.80758 4.80758)" d="M271.378 666.558C271.892 667.94 272.395 669.365 273.028 670.695C270.754 673.118 268.307 675.578 267.228 678.791L267.406 679.865C268.522 680.332 268.582 680.22 269.653 679.744C274.55 677.568 277.999 672.709 282.959 670.676C284.464 670.332 285.542 669.955 287.025 670.625C287.756 671.735 287.999 672.209 287.72 673.556C286.595 678.968 282.089 683.475 282.295 689.215C282.696 689.777 282.769 690.238 283.515 690.318C285.146 690.494 286.693 689.305 287.955 688.42L290.24 691.103C289.508 691.674 288.77 692.246 287.991 692.752C285.856 694.139 283.964 694.699 281.451 694.068C280.148 693.74 279.147 693.027 278.529 691.823C276.14 687.171 281.343 680.45 282.604 676.127C282.675 675.883 282.74 675.638 282.808 675.394C277.35 677.538 273.962 683.886 267.734 684.73C266.269 684.929 264.631 684.93 263.456 683.914C262.733 683.29 262.542 682.229 262.597 681.314C262.967 675.208 266.999 670.385 271.378 666.558Z"/>
	<path fill="#4C484A" transform="scale(4.80758 4.80758)" d="M377.618 825.467L378.315 827.04C379.705 827.119 379.466 826.64 380.573 826.063C380.569 826.308 380.567 826.552 380.56 826.797C380.54 827.448 380.441 828.094 380.375 828.741C380.215 830.309 380.78 831.315 381.828 832.42C384.296 835.022 389.375 835.748 392.832 836.173C396.538 836.201 401.908 837.255 405.434 836.539L406.301 836.166C409.536 836.323 412.563 835.639 415.717 835.017C417.595 834.403 419.49 834.011 421.421 833.607C426.457 832.464 432.686 830.87 436.907 827.799L438.174 827.152C439.083 828.096 439.986 829.006 440.975 829.867C438.374 831.69 435.486 833.124 432.555 834.335C419.567 839.698 396.091 843.993 382.85 838.099C380.34 836.982 377.794 835.404 376.817 832.701C375.858 830.052 376.493 827.93 377.618 825.467Z"/>
	<path fill="#4C484A" transform="scale(4.80758 4.80758)" d="M543.752 323.408C544.317 320.464 545.006 313.16 547.199 311.299C548.184 312.409 548.043 313.133 548.204 314.582L551.298 315.018L549.738 323.587C547.255 335.94 545.748 348.454 543.951 360.912C543.181 360.361 542.725 360.276 541.803 360.275C541.481 360.275 541.16 360.283 540.839 360.286L540.322 359.672C540.268 359.961 540.212 360.25 540.162 360.539C539.826 362.49 540.394 363.969 539.424 365.748L537.918 366.057C536.23 361.738 541.069 339.742 542.026 334.041C542.506 330.47 543.016 326.937 543.752 323.408Z"/>
	<path fill="#FEFEFE" transform="scale(4.80758 4.80758)" d="M543.752 323.408C544.317 320.464 545.006 313.16 547.199 311.299C548.184 312.409 548.043 313.133 548.204 314.582C547.409 317.563 546.818 320.584 546.206 323.606C544.081 335.322 540.865 347.769 540.322 359.672C540.268 359.961 540.212 360.25 540.162 360.539C539.826 362.49 540.394 363.969 539.424 365.748L537.918 366.057C536.23 361.738 541.069 339.742 542.026 334.041C542.506 330.47 543.016 326.937 543.752 323.408Z"/>
	<path fill="#4C484A" transform="scale(4.80758 4.80758)" d="M356.626 330.994C359.583 329.814 365 326.963 368.262 327.623C369.869 327.948 370.214 328.588 371.212 329.734C370.401 331.808 369.881 333.4 368.186 334.917C366.891 335.301 365.582 335.57 364.505 336.423C366.769 336.525 368.985 336.304 370.77 337.889C371.424 339.177 371.773 339.739 371.558 341.229C370.275 343.323 367.712 343.45 366.203 345.293C366.772 345.863 366.721 345.985 367.552 346.119C368.965 346.347 370.031 346.388 371.07 347.474C371.215 348.013 371.443 348.593 371.442 349.152C369.114 348.539 366.011 347.556 363.653 348.424L363.419 349.048L364.106 349.973C359.401 350.812 353.941 353.836 349.162 352.013C348.298 351.092 348.174 350.992 347.962 349.76C352.35 346.363 359.132 346.819 363.359 342.771C363.59 342.55 363.808 342.318 364.033 342.092L363.358 341.653C361.612 341.735 359.704 341.726 357.991 342.057C355.349 342.567 352.922 344.324 350.149 343.673C349.299 342.562 349.478 342.393 349.56 340.97C350.995 338.096 362.635 334.635 365.963 331.796C364.488 331.926 363.142 332.663 361.801 333.25C361.06 333.226 360.634 333.162 359.959 332.813C358.839 332.234 357.735 331.598 356.626 330.994Z"/>
	<path fill="#231F20" transform="scale(4.80758 4.80758)" d="M368.186 334.917C367.473 333.651 366.977 332.489 366.933 331.017C368.214 329.767 369.467 329.958 371.212 329.734C370.401 331.808 369.881 333.4 368.186 334.917Z"/>
	<path fill="#565051" transform="scale(4.80758 4.80758)" d="M363.358 341.653L362.908 339.716C364.177 338.267 365.289 338.084 367.171 337.972C368.191 337.911 368.17 337.757 369.026 338.38C367.767 340.049 365.797 341.022 364.033 342.092L363.358 341.653Z"/>
	<path fill="#231F20" transform="scale(4.80758 4.80758)" d="M567.668 132.493C570.051 132.455 572.819 132.075 574.79 133.695C576.311 134.944 576.767 136.787 577.158 138.622C578.533 145.076 578.42 152.136 578.817 158.716L581.031 194.47C583.853 193.986 586.693 193.43 589.572 193.603C589.816 195.473 590.093 195.907 589.137 197.591C586.92 197.874 583.804 197.536 581.89 198.596C580.838 200.528 581.322 202.589 581.899 204.597L582.961 205.31L582.823 205.684L581.717 205.965C579.986 203.376 581.21 199.237 580.339 196.31C578.869 195.641 578.027 196.011 576.454 196.254C576.836 189.86 574.236 140.758 572.515 136.595L572.108 134.793C570.926 133.294 569.438 133.03 567.668 132.493Z"/>
	<path fill="#4C484A" transform="scale(4.80758 4.80758)" d="M538.303 334.301L539.826 332.894C541.054 333.032 541.106 333.187 542.026 334.041C541.069 339.742 536.23 361.738 537.918 366.057C539.807 367.142 539.909 368.261 540.596 370.22C540.399 370.279 540.207 370.356 540.006 370.398C537.285 370.963 532.387 368.938 530.614 371.343C529.471 372.894 528.787 375.122 529.119 377.043C529.459 379.008 530.812 380.501 532.455 381.533C538.437 385.288 553.355 385.62 560.593 385.886C559.93 386.958 559.42 387.388 558.343 388.036L557.604 389.706C550.503 389.566 542.854 388.722 536.028 386.744C532.324 385.671 528.271 383.773 526.47 380.141C525.185 377.552 525.397 374.318 526.495 371.697C527.886 368.379 530.746 367.134 533.885 365.909C534.183 355.442 536.769 344.673 538.303 334.301Z"/>
	<path fill="#4C484A" transform="scale(4.80758 4.80758)" d="M558.871 821.128C562.459 823.201 566.273 825.7 567.439 829.931C567.89 831.57 567.846 833.224 566.959 834.709C565.081 837.855 560.452 839.312 557.09 840.02C547.356 842.07 519.2 840.631 510.414 835.688L510.559 835.288C510.321 835.063 510.071 834.85 509.845 834.613C508.97 833.695 508.625 833.517 508.625 832.243C509.732 831.485 509.947 831.67 511.239 831.659C520.072 834.011 552.047 839.396 559.83 834.618C560.799 834.023 561.652 833.184 562.477 832.407C562.784 831.491 562.787 830.962 562.782 830.012C561.867 828.079 560.094 827.048 558.418 825.809C558.699 825.553 559.187 825.138 559.382 824.824C560.188 823.531 559.351 822.389 558.871 821.128Z"/>
	<path fill="#231F20" transform="scale(4.80758 4.80758)" d="M957.475 498.651C939.805 484.085 913.416 475.793 891.296 470.968C887.29 470.093 876.431 469.044 873.786 467.358C873.647 466.238 873.669 466.047 874.108 465.01C874.586 464.805 874.754 464.694 875.341 464.666C878.447 464.517 882.744 465.86 885.889 466.478C907.712 470.768 943.323 482.104 960.161 497.012C966.015 502.478 975.169 513.16 975.763 521.513C975.806 522.128 975.695 522.668 975.574 523.266C974.676 524.049 974.746 523.991 973.549 523.923C971.887 522.139 971.691 518.967 970.735 516.719C967.828 509.888 963.073 503.501 957.475 498.651Z"/>
	<path fill="#565051" transform="scale(4.80758 4.80758)" d="M374.757 490.676C376.479 490.482 378.391 490.154 380.107 490.481C381.367 490.721 383.557 491.36 384.28 492.419C383.476 493.115 382.66 493.332 381.623 493.49C374.733 494.537 367.639 494.99 360.705 495.903L313.994 502.524C305.349 503.758 296.863 504.709 288.314 506.614C284.902 507.291 282.269 508.042 278.862 506.879L278.679 506.181C285.468 499.927 360.224 492.659 374.757 490.676Z"/>
	<path fill="#565051" transform="scale(4.80758 4.80758)" d="M76.009 681.537C104.63 697.269 139.935 702.553 172.174 704.434C178.105 704.781 197.558 703.994 201.625 705.875L201.757 707.318C201.09 708.069 200.973 708.261 199.915 708.368C197.222 708.643 193.813 707.974 190.992 707.965C181.871 707.934 172.672 707.752 163.582 706.966C142.269 705.122 96.557 698.616 79.1456 686.811L79.8687 686.576C77.6801 684.933 76.6925 684.198 76.009 681.537Z"/>
	<path fill="#4C484A" transform="scale(4.80758 4.80758)" d="M665.364 474.221Q689.34 469.703 713.672 467.907C714.901 467.817 715.987 467.982 717.165 468.312L717.525 468.631C716.731 470.207 714.49 471.107 712.832 471.581C710.288 472.308 707.333 471.805 704.693 472.07C691.76 473.366 677.247 475.055 664.486 477.323C655.174 478.416 646.053 480.259 636.806 481.74C624.581 483.697 612.605 485.397 600.54 488.29C596.097 489.356 576.9 495.987 574.291 494.88L574.312 494.163C579.784 488.352 610.766 482.128 619.209 480.695C626.111 479.523 633.14 479.053 640.064 477.999C648.503 476.715 656.865 475.093 665.364 474.221Z"/>
	<path fill="#FEFEFE" transform="scale(4.80758 4.80758)" d="M589.572 193.603C600.463 196.571 614.831 201.26 621.175 211.539C621.185 214.138 622.425 215.353 622.04 218.029C622.012 218.222 622.057 218.418 622.066 218.613L625.255 223.315C623.45 224.246 621.704 225.326 619.944 226.342C617.216 220.87 613.728 217.691 608.958 214.018C602.256 207.337 592.018 205.309 582.961 205.31L581.899 204.597C581.322 202.589 580.838 200.528 581.89 198.596C583.804 197.536 586.92 197.874 589.137 197.591C590.093 195.907 589.816 195.473 589.572 193.603Z"/>
	<path fill="#565051" transform="scale(4.80758 4.80758)" d="M589.572 193.603C600.463 196.571 614.831 201.26 621.175 211.539C621.185 214.138 622.425 215.353 622.04 218.029C622.012 218.222 622.057 218.418 622.066 218.613C613.545 207.041 603.356 200.427 589.137 197.591C590.093 195.907 589.816 195.473 589.572 193.603Z"/>
	<path fill="#4C484A" transform="scale(4.80758 4.80758)" d="M917.969 680.061C919.802 680.383 920.545 680.929 921.598 682.399C921.8 683.359 921.818 683.87 921.529 684.837C919.327 692.192 907.548 700.137 901.054 703.58C879.572 714.969 819.987 730.723 796.698 723.531C796.397 723.409 795.988 723.254 795.72 723.083C794.68 722.418 794.71 722.032 794.435 720.89L795.106 720.145C797.764 719.307 801.467 721.525 804.114 722.247C816.043 725.5 863.722 713.752 876.926 709.545C884.713 707.064 892.353 704.075 899.535 700.155C908.804 695.097 914.935 690.51 917.969 680.061Z"/>
	<path fill="#4C484A" transform="scale(4.80758 4.80758)" d="M907.046 636.311L907.219 638.635C908.47 638.138 907.651 636.829 909.048 636.761C909.468 637.572 909.79 638.236 910.053 639.117C903.318 651.464 876.435 660.424 863.151 664.334C854.039 667.016 844.801 668.707 835.614 671.036C814.732 676.33 794.22 681.465 772.874 684.633C768.291 685.313 763.317 686.458 758.728 686.565L758.873 683.419C766.296 682.006 773.906 681.525 781.37 680.206C799.001 677.09 816.236 672.739 833.579 668.36C857.062 662.43 879.057 658.172 899.878 644.711C903.364 642.457 906.121 640.56 907.046 636.311Z"/>
	<path fill="#FEFEFE" transform="scale(4.80758 4.80758)" d="M540.596 370.22C549.617 369.889 567.409 373.638 574.148 380.009C575.136 380.943 575.377 381.522 575.535 382.844C574.962 384.028 574.523 384.632 573.291 385.192C570.242 386.579 564.127 385.294 560.593 385.886C553.355 385.62 538.437 385.288 532.455 381.533C530.812 380.501 529.459 379.008 529.119 377.043C528.787 375.122 529.471 372.894 530.614 371.343C532.387 368.938 537.285 370.963 540.006 370.398C540.207 370.356 540.399 370.279 540.596 370.22Z"/>
	<path fill="#4C484A" transform="scale(4.80758 4.80758)" d="M324.017 627.673C322.299 630.831 318.344 632.428 316.25 635.651L317.206 637.026L316.779 637.005C322.745 634.996 332.598 622.569 338.506 622.29C332.908 627.174 326.34 631.227 320.425 635.754C314.287 640.451 308.592 645.831 302.86 651.012C304.894 653.273 306.918 654.931 309.538 656.495C313.811 653.122 320.04 646.758 324.528 644.346C324.821 644.254 325.116 644.166 325.409 644.072C326.318 643.777 326.839 643.435 327.538 642.769L328.382 642.716C328.238 642.912 328.076 643.095 327.95 643.303C327.03 644.816 327.57 646.281 326.564 647.892C321.466 651.932 316.518 656.19 311.319 660.097C312.063 665.271 312.199 670.266 311.776 675.474C310.559 674.967 309.513 674.74 308.225 674.52C308.563 666.788 308.818 661.933 303.01 656.05C302.09 655.118 300.973 654.223 300.626 652.912C300.242 651.464 299.924 650.513 298.638 649.654C293.43 646.18 275.782 650.71 269.302 651.955C266.144 652.561 260.411 653.62 258.536 656.386L258.737 657.42C263.289 657.597 267.807 656.135 272.433 656.212C272.782 657.526 273.699 659.271 273.845 660.52C269.224 660.322 260.253 663.057 256.374 660.887C255.416 660.351 254.919 658.895 254.769 657.851C254.555 656.365 254.945 655.093 255.879 653.925C260.661 647.943 278.632 646.063 286.26 644.934C291.859 644.105 297.232 643.944 301.963 647.431C308.405 639.75 315.553 633.078 324.017 627.673Z"/>
	<path fill="#565051" transform="scale(4.80758 4.80758)" d="M469.021 913.844Q475.993 913.801 482.96 913.506Q489.926 913.212 496.878 912.667Q503.829 912.122 510.756 911.327Q517.683 910.532 524.578 909.488Q531.472 908.444 538.324 907.153Q545.176 905.861 551.977 904.324Q558.778 902.786 565.519 901.005Q572.26 899.223 578.933 897.2C584.016 895.659 593.364 893.558 597.05 889.707C598.554 888.136 599.843 886.291 601.23 884.614C602.523 884.853 602.751 884.924 603.748 885.77C603.997 887.131 604.078 887.778 603.328 888.999C596.185 900.64 541.392 910.137 527.991 912.38C509.752 915.432 491.737 917.569 473.213 917.498C463.877 917.619 454.214 916.842 445.459 913.32C443.276 912.642 440.433 912.051 438.532 910.779C437.371 910.002 436.448 909.108 436.233 907.737L437.17 907.175C440.003 907.144 441.99 908.291 444.57 909.352C450.129 911.125 455.53 912.457 461.327 913.198C463.832 913.518 466.579 913.368 469.021 913.844Z"/>
	<path fill="#231F20" transform="scale(4.80758 4.80758)" d="M621.175 211.539C623.82 214.427 625.515 218.683 628.401 221.144C633.82 225.767 637.334 218.72 641.425 235.03C639.179 241.211 636.706 245.86 630.44 248.845C626.927 250.518 621.762 251.741 618.009 250.18Q617.669 250.04 617.346 249.866Q617.023 249.691 616.72 249.483Q616.417 249.275 616.137 249.036Q615.858 248.797 615.606 248.53Q615.353 248.263 615.13 247.971Q614.908 247.679 614.717 247.365Q614.527 247.05 614.37 246.718Q614.214 246.385 614.094 246.038C612.031 240.24 616.682 232.834 619.279 227.854C617.309 226.19 615.174 224.577 613.434 222.674C616.128 223.517 617.725 225.383 619.734 227.279C619.37 226.647 618.987 226.028 618.623 225.397C616.653 221.988 609.575 216.932 608.958 214.018C613.728 217.691 617.216 220.87 619.944 226.342C621.704 225.326 623.45 224.246 625.255 223.315L622.066 218.613C622.057 218.418 622.012 218.222 622.04 218.029C622.425 215.353 621.185 214.138 621.175 211.539Z"/>
	<path fill="#FEFEFE" transform="scale(4.80758 4.80758)" d="M630.403 225.468C631.301 225.546 632.145 225.575 632.927 226.092C635.22 227.608 636.671 231.196 636.963 233.82C637.305 236.889 635.876 238.877 634.065 241.184C633.001 242.54 632.117 243.683 630.321 243.909C628.749 243.092 628.422 241.717 627.364 240.343C626.091 240.513 626.07 240.788 625.194 241.759C625.167 241.905 625.142 242.051 625.112 242.197L624.958 242.92C624.659 244.386 624.464 245.747 623.132 246.703C621.987 247.525 621.478 247.342 620.23 247.059C619.454 246.379 618.983 245.893 618.529 244.942C617.339 242.45 618.181 239.041 619.129 236.621C621.393 230.844 624.905 227.852 630.403 225.468Z"/>
	<path fill="#FEFEFE" transform="scale(4.80758 4.80758)" d="M371.704 604.965C370.626 609.186 369.979 613.463 369.296 617.76Q365.319 618.743 361.515 620.261Q357.71 621.779 354.15 623.805C354.021 624.031 353.9 624.263 353.762 624.485C351.839 627.59 346.319 628.922 343.735 631.891C344 632.079 344.281 632.248 344.532 632.456C344.71 632.604 345.192 633.156 345.366 633.352C347.32 632.643 348.7 630.938 349.698 629.175C350.866 629.085 351.204 629.199 352.194 628.538C352.948 628.035 353.21 627.888 354.068 627.817L354.517 628.225C345.322 634.993 335.634 640.936 326.564 647.892C327.57 646.281 327.03 644.816 327.95 643.303C328.076 643.095 328.238 642.912 328.382 642.716L327.538 642.769C326.839 643.435 326.318 643.777 325.409 644.072C325.116 644.166 324.821 644.254 324.528 644.346C320.04 646.758 313.811 653.122 309.538 656.495C306.918 654.931 304.894 653.273 302.86 651.012C308.592 645.831 314.287 640.451 320.425 635.754C326.34 631.227 332.908 627.174 338.506 622.29C349.11 615.505 360.112 609.855 371.704 604.965Z"/>
	<path fill="#565051" transform="scale(4.80758 4.80758)" d="M354.15 623.805C354.021 624.031 353.9 624.263 353.762 624.485C351.839 627.59 346.319 628.922 343.735 631.891C344 632.079 344.281 632.248 344.532 632.456C344.71 632.604 345.192 633.156 345.366 633.352C347.32 632.643 348.7 630.938 349.698 629.175C350.866 629.085 351.204 629.199 352.194 628.538C352.948 628.035 353.21 627.888 354.068 627.817L354.517 628.225C345.322 634.993 335.634 640.936 326.564 647.892C327.57 646.281 327.03 644.816 327.95 643.303C328.076 643.095 328.238 642.912 328.382 642.716L327.538 642.769C326.839 643.435 326.318 643.777 325.409 644.072C325.116 644.166 324.821 644.254 324.528 644.346C328.978 639.718 348.63 626.442 354.15 623.805Z"/>
	<defs>
		<linearGradient id="gradient_3" gradientUnits="userSpaceOnUse" x1="622.25958" y1="240.47476" x2="526.94653" y2="266.71069">
			<stop offset="0" stop-color="#40383A"/>
			<stop offset="1" stop-color="#565254"/>
		</linearGradient>
	</defs>
	<path fill="url(#gradient_3)" transform="scale(4.80758 4.80758)" d="M576.454 196.254C578.027 196.011 578.869 195.641 580.339 196.31C581.21 199.237 579.986 203.376 581.717 205.965L582.823 205.684L582.961 205.31C592.018 205.309 602.256 207.337 608.958 214.018C609.575 216.932 616.653 221.988 618.623 225.397C618.987 226.028 619.37 226.647 619.734 227.279C617.725 225.383 616.128 223.517 613.434 222.674C613.23 222.56 613.023 222.448 612.82 222.33C610.287 220.858 608.082 218.27 605.692 216.484C598.097 210.808 590.992 209.964 581.993 208.33C582.588 215.534 582.698 222.754 583.381 229.952C584.584 242.61 591.596 291.747 584.534 299.867C579.412 305.757 560.034 308.876 552.226 310.377L551.298 315.018L548.204 314.582C548.043 313.133 548.184 312.409 547.199 311.299C545.006 313.16 544.317 320.464 543.752 323.408C542.491 323.269 541.293 322.86 540.082 322.503C540.49 319.308 542.322 315.64 541.366 312.53C539.939 311.506 538.873 311.909 537.153 311.998C537.205 311.923 537.25 311.842 537.31 311.773C537.895 311.096 538.495 310.559 538.922 309.757C539.288 309.072 538.705 307.999 538.48 307.268C540.514 307.223 542.994 306.494 545.083 306.247C557.128 304.828 568.661 302.715 580.214 298.972C585.914 285.439 579.708 247.546 578.33 231.648C577.317 219.964 576.638 207.972 576.454 196.254Z"/>
	<path fill="#231F20" transform="scale(4.80758 4.80758)" d="M481.725 361.525C482.12 360.512 481.889 360.747 482.561 360.11C483.246 359.46 484.607 359.753 485.537 359.76C486.158 364.659 486.366 369.7 487.199 374.551C491.043 373.563 496.196 371.986 499.926 373.977C501.256 374.687 502.529 375.932 502.869 377.442C503.36 379.622 502.06 381.837 500.78 383.49C492.426 394.281 473.637 405.727 459.874 407.146C456.912 407.452 452.834 407.727 450.428 405.616C449.172 404.514 448.541 402.704 448.679 401.053C449.108 395.928 456.208 390.357 460.058 387.445C463.986 384.475 469.266 380.577 474.027 379.201C475.17 379.464 476.478 379.079 477.53 378.598C479.739 377.586 481.092 374.194 481.769 372.014C481.828 371.825 481.882 371.635 481.938 371.446L481.94 372.307C482.643 371.17 482.493 370.788 482.441 369.429C482.486 366.829 482.005 364.113 481.725 361.525Z"/>
	<path fill="#FEFEFE" transform="scale(4.80758 4.80758)" d="M492.188 376.058C493.792 375.99 495.969 375.805 497.488 376.422C498.741 376.93 498.893 377.176 499.407 378.324C499.283 379.475 498.935 380.211 498.249 381.121C490.339 391.61 471.482 401.844 458.521 403.504C456.995 403.5 455.7 403.334 454.213 403.003C453.177 402.051 453.221 402.091 453.08 400.687C453.684 399.157 454.453 398.125 455.567 396.912C461.977 389.928 470.469 385.364 478.705 380.938C479.46 380.532 482.548 378.582 483.369 378.721C484.662 378.939 484.895 379.615 486.439 379.534C488.294 377.988 489.783 376.672 492.188 376.058Z"/>
	<path fill="#FEFEFE" transform="scale(4.80758 4.80758)" d="M381.007 269.27C380.778 262.339 380.801 255.387 384.048 249.049C385.705 245.816 388.198 243.01 391.78 241.959C393.759 241.379 397.352 240.486 399.24 241.568L401.071 242.003C407.144 244.37 414.916 249.609 417.638 255.724C418.569 257.816 418.915 260.01 417.949 262.158C416.507 265.363 413.206 266.584 410.125 267.684C407.978 271.045 405.699 276.163 401.385 276.894C399.86 277.152 397.632 276.297 396.158 275.862C394.493 278.376 393.003 280.619 389.91 281.369C387.557 281.939 385.308 281.597 383.293 280.247C380.358 278.281 379.211 274.833 378.721 271.484C378.615 270.757 378.522 270.026 378.552 269.291C378.587 269.145 378.624 268.999 378.657 268.853C379.22 266.349 378.646 263.533 379.391 261.19L379.794 261.021L379.179 262.84L379.699 262.736C379.72 264.979 379.326 267.544 381.007 269.27Z"/>
	<path fill="#231F20" transform="scale(4.80758 4.80758)" d="M399.24 241.568L401.071 242.003C407.144 244.37 414.916 249.609 417.638 255.724C418.569 257.816 418.915 260.01 417.949 262.158C416.507 265.363 413.206 266.584 410.125 267.684C407.978 271.045 405.699 276.163 401.385 276.894C399.86 277.152 397.632 276.297 396.158 275.862C394.493 278.376 393.003 280.619 389.91 281.369C387.557 281.939 385.308 281.597 383.293 280.247C380.358 278.281 379.211 274.833 378.721 271.484C378.615 270.757 378.522 270.026 378.552 269.291C378.587 269.145 378.624 268.999 378.657 268.853C379.22 266.349 378.646 263.533 379.391 261.19L379.794 261.021L379.179 262.84L379.699 262.736C379.72 264.979 379.326 267.544 381.007 269.27Q381.286 270.464 381.63 271.642C382.358 274.072 384.631 277.344 387.033 278.331C388.16 278.795 389.265 278.688 390.326 278.109C391.5 277.469 392.039 276.753 392.404 275.532C391.416 272.871 390.195 269.897 390.773 267.031L391.387 266.797C393.742 268.379 395.084 271.34 397.35 273.159C398.413 274.012 399.297 274.321 400.668 274.209C401.668 273.634 402.059 273.299 402.61 272.281C402.52 270.228 400.265 269.065 399.724 267.092C399.515 266.329 399.868 266.048 400.204 265.399L401.528 265.176C402.736 265.585 403.331 265.809 404.161 266.801C404.741 267.494 405.044 267.836 405.925 268.169C408.466 265.822 404.214 261.274 405.059 258.273C408.424 259.169 408.881 263.661 411.899 264.15C412.729 264.285 412.791 263.998 413.415 263.536C413.988 262.183 414.174 261.169 414.088 259.689C413.648 252.112 404.93 250.191 400.295 245.612C399.325 244.653 399.111 243.891 399.172 242.572C399.187 242.237 399.217 241.902 399.24 241.568Z"/>
	<path fill="#FEFEFE" transform="scale(4.80758 4.80758)" d="M272.433 656.212C267.807 656.135 263.289 657.597 258.737 657.42L258.536 656.386C260.411 653.62 266.144 652.561 269.302 651.955C275.782 650.71 293.43 646.18 298.638 649.654C299.924 650.513 300.242 651.464 300.626 652.912C300.973 654.223 302.09 655.118 303.01 656.05C308.818 661.933 308.563 666.788 308.225 674.52C309.513 674.74 310.559 674.967 311.776 675.474C311.433 678.029 311.015 681.761 308.871 683.557C307.82 684.438 306.87 684.777 305.5 684.621C301.522 684.168 298.902 680.039 296.749 677.106C295.283 681.99 293.912 687.344 290.24 691.103L287.955 688.42C286.693 689.305 285.146 690.494 283.515 690.318C282.769 690.238 282.696 689.777 282.295 689.215C282.089 683.475 286.595 678.968 287.72 673.556C287.999 672.209 287.756 671.735 287.025 670.625C285.542 669.955 284.464 670.332 282.959 670.676C277.999 672.709 274.55 677.568 269.653 679.744C268.582 680.22 268.522 680.332 267.406 679.865L267.228 678.791C268.307 675.578 270.754 673.118 273.028 670.695C272.395 669.365 271.892 667.94 271.378 666.558C273.125 665.14 275.878 663.521 276.668 661.416L273.845 660.52C273.699 659.271 272.782 657.526 272.433 656.212Z"/>
	<path fill="#565051" transform="scale(4.80758 4.80758)" d="M272.433 656.212L277.425 656.717C277.048 658.23 276.446 659.85 276.668 661.416L273.845 660.52C273.699 659.271 272.782 657.526 272.433 656.212Z"/>
	<defs>
		<linearGradient id="gradient_4" gradientUnits="userSpaceOnUse" x1="280.82739" y1="656.34686" x2="276.28931" y2="668.83209">
			<stop offset="0" stop-color="#433E40"/>
			<stop offset="1" stop-color="#5D5755"/>
		</linearGradient>
	</defs>
	<path fill="url(#gradient_4)" transform="scale(4.80758 4.80758)" d="M277.425 656.717C277.603 656.761 277.78 656.808 277.959 656.849C280.309 657.381 283.784 656.166 285.589 657.111C285.96 657.942 286.161 657.938 285.852 658.87C284.401 663.246 276.401 667.562 273.028 670.695C272.395 669.365 271.892 667.94 271.378 666.558C273.125 665.14 275.878 663.521 276.668 661.416C276.446 659.85 277.048 658.23 277.425 656.717Z"/>
	<defs>
		<linearGradient id="gradient_5" gradientUnits="userSpaceOnUse" x1="298.20193" y1="667.84662" x2="300.06757" y2="688.54761">
			<stop offset="0" stop-color="#393433"/>
			<stop offset="1" stop-color="#4F4B4E"/>
		</linearGradient>
	</defs>
	<path fill="url(#gradient_5)" transform="scale(4.80758 4.80758)" d="M287.955 688.42C291.398 682.52 292.081 675.687 295.234 669.912C295.88 668.731 296.336 668.163 297.601 667.731C300.394 669.98 299.934 677.701 303.941 680.564C304.6 681.036 304.815 680.815 305.539 680.688C307.039 679.025 307.54 676.617 308.225 674.52C309.513 674.74 310.559 674.967 311.776 675.474C311.433 678.029 311.015 681.761 308.871 683.557C307.82 684.438 306.87 684.777 305.5 684.621C301.522 684.168 298.902 680.039 296.749 677.106C295.283 681.99 293.912 687.344 290.24 691.103L287.955 688.42Z"/>
	<path fill="#4C484A" transform="scale(4.80758 4.80758)" d="M427.354 202.21C427.495 194.302 426.898 186.37 426.965 178.452C427.013 172.896 426.378 153.188 429.891 149.96C431.788 148.216 434.352 147.151 436.767 146.338C444.552 143.718 453.233 142.504 461.257 140.692C471.637 138.35 481.952 135.436 492.483 133.842C505.822 131.824 519.783 130.136 533.281 129.804C544.702 129.523 556.288 131.577 567.668 132.493C569.438 133.03 570.926 133.294 572.108 134.793L572.515 136.595C566.327 135.974 560.117 135.642 553.932 135.02C548.607 134.485 543.199 133.598 537.844 133.565C523.002 133.474 503.491 135.647 488.887 138.491C482.43 139.748 476.098 141.538 469.685 142.991C461.361 144.878 452.736 146.408 444.739 149.472C440.291 151.177 436.499 153.407 432.437 155.855C428.179 180.805 435.73 285.345 444.39 308.732C445.787 309.873 447.153 310.989 448.672 311.964C458.945 313.264 469.404 313.117 479.74 312.94C481.525 313.068 483.399 313.005 484.941 314.012L485.047 314.808C484.197 315.766 483.536 316.285 482.401 316.877C483.029 325.659 483.388 334.474 484.073 343.246C484.503 348.753 485.37 354.236 485.537 359.76C484.607 359.753 483.246 359.46 482.561 360.11C481.889 360.747 482.12 360.512 481.725 361.525C482.005 364.113 482.486 366.829 482.441 369.429C482.493 370.788 482.643 371.17 481.94 372.307L481.938 371.446C481.882 371.635 481.828 371.825 481.769 372.014C481.092 374.194 479.739 377.586 477.53 378.598C476.478 379.079 475.17 379.464 474.027 379.201C475.737 378.186 477.603 377.383 479.394 376.516C477.243 367.189 475.802 357.948 474.258 348.516C472.527 337.945 470.749 327.775 470.353 317.024C461.64 317.14 453.105 316.74 444.506 315.252C441.889 312.31 440.151 309.168 438.853 305.471C436.113 297.669 434.986 288.715 433.862 280.534C431.06 260.15 429.965 239.649 427.938 219.188C416.004 223.975 407.208 230.418 401.071 242.003L399.24 241.568C397.352 240.486 393.759 241.379 391.78 241.959C388.198 243.01 385.705 245.816 384.048 249.049C380.801 255.387 380.778 262.339 381.007 269.27C379.326 267.544 379.72 264.979 379.699 262.736L379.179 262.84L379.794 261.021L379.391 261.19C378.646 263.533 379.22 266.349 378.657 268.853C378.624 268.999 378.587 269.145 378.552 269.291C378.26 267.216 378.162 265.161 378.212 263.068C378.461 252.517 382.533 245.844 390.112 238.708C390.633 236.588 391.129 234.384 391.983 232.372C398.075 218.007 413.49 207.867 427.354 202.21Z"/>
	<path fill="#FEFEFE" transform="scale(4.80758 4.80758)" d="M473.194 317.17L480.144 317.086C477.733 331.193 480.155 347.36 481.725 361.525C482.005 364.113 482.486 366.829 482.441 369.429C480.035 365.792 474.423 324.418 473.194 317.17Z"/>
	<path fill="#FEFEFE" transform="scale(4.80758 4.80758)" d="M426.91 205.966C427.611 208.949 427.429 212.127 427.461 215.18C413.957 220.415 407.67 226.809 398.442 237.56L392.169 238.508L391.738 237.938C392.951 235.11 395.129 232.51 397.011 230.096C405.176 219.622 414.824 211.602 426.91 205.966Z"/>
	<path fill="#231F20" transform="scale(4.80758 4.80758)" d="M299.266 194.308C309.539 189.951 325.63 191.248 335.822 195.401C341.767 197.824 347.357 201.948 349.876 208.033C352.262 213.796 351.784 220.61 349.228 226.23C346.098 233.112 339.795 238.95 334.185 243.821C335.955 246.835 339.04 250.747 338.702 254.385C337.887 255.229 337.749 255.293 336.508 255.307C329.519 255.382 323.434 251.748 316.866 250.251C312.915 249.35 308.604 249.566 304.573 249.404C295.858 249.056 285.057 247.491 278.651 240.968C273.92 236.15 271.348 228.969 271.519 222.242C271.661 216.681 273.626 210.751 277.138 206.383C282.194 200.52 291.939 196.44 299.266 194.308Z"/>
	<path fill="#B3B2B2" transform="scale(4.80758 4.80758)" d="M300.048 197.48C312.427 195.022 327.994 194.979 338.907 202.28C342.708 204.823 345.797 208.11 346.748 212.715C347.889 218.243 346.176 224.255 342.968 228.791C339.359 233.895 334.32 237.383 329.215 240.838C329.921 242.422 331.619 247.396 332.881 248.197C332.095 249.127 331.595 249.577 330.345 249.774C325.898 250.475 321.299 246.513 317.08 245.705C306.28 243.637 292.417 247.125 283.205 239.416C279.07 235.956 275.974 229.537 275.724 224.183C275.525 219.956 276.8 215.959 278.301 212.072C283.136 203.847 291.227 200.022 300.048 197.48Z"/>
	<path fill="#4C484A" transform="scale(4.80758 4.80758)" d="M322.008 214.8C323.527 215.133 325.362 215.43 326.469 216.64C326.999 217.22 327.325 217.93 327.346 218.708C327.401 220.818 326.165 222.052 324.816 223.487C324.223 223.572 323.595 223.681 322.994 223.673C321.611 223.654 320.925 223.129 319.945 222.239C319.49 221.352 319.297 220.841 319.295 219.816C319.293 217.626 320.513 216.226 322.008 214.8Z"/>
	<path fill="#231F20" transform="scale(4.80758 4.80758)" d="M288.878 220.428C290.352 220.533 292.235 220.649 293.39 221.712C294.317 222.566 294.79 223.358 294.739 224.657C294.673 226.356 293.292 227.712 292.244 228.911C290.755 229.077 289.106 229.337 287.845 228.289C287.089 227.66 286.818 227.08 286.678 226.144C286.311 223.69 287.485 222.289 288.878 220.428Z"/>
	<path fill="#231F20" transform="scale(4.80758 4.80758)" d="M305.484 216.995C306.63 216.922 308.149 216.78 309.235 217.218C310.535 217.743 310.752 218.495 311.238 219.669C311.105 222.438 309.991 223.719 308.123 225.646C306.909 225.715 305.384 225.805 304.249 225.275C303.585 224.964 303.062 224.418 302.902 223.708C302.389 221.419 304.352 218.877 305.484 216.995Z"/>
	<path fill="#231F20" transform="scale(4.80758 4.80758)" d="M660.771 141.199C663.016 140.889 665.407 141.083 667.667 141.163C678.702 141.551 694.428 146.945 701.946 155.317Q702.313 155.729 702.659 156.159Q703.005 156.589 703.329 157.036Q703.654 157.482 703.957 157.944Q704.259 158.405 704.539 158.881Q704.818 159.357 705.074 159.846Q705.33 160.335 705.561 160.836Q705.793 161.337 706 161.849Q706.207 162.36 706.388 162.882Q706.57 163.403 706.726 163.932Q706.882 164.462 707.011 164.998Q707.141 165.535 707.245 166.077Q707.348 166.619 707.425 167.165Q707.501 167.712 707.551 168.262Q707.601 168.811 707.624 169.363Q707.647 169.914 707.643 170.466Q707.639 171.018 707.608 171.569Q707.572 172.235 707.503 172.899Q707.434 173.562 707.331 174.222Q707.228 174.881 707.092 175.534Q706.956 176.187 706.787 176.833Q706.618 177.478 706.417 178.115Q706.216 178.751 705.982 179.376Q705.749 180.001 705.485 180.614Q705.22 181.226 704.925 181.824Q704.63 182.423 704.305 183.005Q703.979 183.588 703.625 184.154Q703.271 184.719 702.889 185.266Q702.506 185.813 702.097 186.34Q701.687 186.866 701.252 187.372Q700.816 187.877 700.356 188.36Q699.895 188.843 699.411 189.301Q698.926 189.76 698.419 190.194C689.466 197.966 678.295 199.579 666.833 198.861C662.696 202.082 659.004 206.236 655.259 209.917C652.766 212.175 649.305 216.019 645.995 216.844C645.147 217.055 645.501 217.039 644.629 216.575C644.017 213.082 650.014 202.313 651.792 198.24C644.311 196.8 636.302 194.588 630.234 189.737C625.233 185.739 622.28 180.042 621.733 173.682C621.191 167.379 622.25 160.801 626.447 155.856C634.595 146.254 648.755 142.399 660.771 141.199Z"/>
	<path fill="#B3B2B2" transform="scale(4.80758 4.80758)" d="M659.782 145.684C664.391 144.743 670.294 145.291 674.936 146.195C683.305 147.827 695.415 152.809 700.186 160.169C703.086 164.642 703.836 170.273 702.713 175.439C701.396 181.492 697.476 186.403 692.306 189.692C684.423 194.706 675.979 196.029 666.951 193.963C666.896 194.002 666.842 194.043 666.786 194.081C663.778 196.176 661.315 198.84 658.75 201.441L650.237 209.872C652.021 205.807 655.715 200.579 655.592 196.117C653.15 193.213 639.321 192.235 633.111 187.498C628.797 184.205 626.632 178.996 625.975 173.723C625.306 168.354 626.095 162.713 629.526 158.373C636.418 149.653 649.441 147.023 659.782 145.684Z"/>
	<path fill="#231F20" transform="scale(4.80758 4.80758)" d="M665.732 166.271C666.786 166.382 667.887 166.545 668.657 167.372C669.219 167.975 669.532 168.692 669.527 169.504C669.513 171.852 668.344 172.983 666.768 174.52C666 174.395 665.043 174.221 664.391 173.766C663.791 173.346 663.255 172.643 663.166 171.911C662.891 169.641 664.415 167.937 665.732 166.271Z"/>
	<path fill="#231F20" transform="scale(4.80758 4.80758)" d="M652.953 165.858C653.936 165.908 655.156 166.028 656 166.581Q656.246 166.739 656.457 166.942Q656.668 167.145 656.836 167.384Q657.004 167.623 657.123 167.891Q657.242 168.158 657.308 168.443C657.829 170.634 656.829 172.401 655.785 174.259C655.047 174.255 654.408 174.226 653.708 173.948C652.6 173.51 651.811 172.659 651.521 171.49C651.001 169.39 651.887 167.593 652.953 165.858Z"/>
	<path fill="#231F20" transform="scale(4.80758 4.80758)" d="M641.592 166.408C642.972 166.337 644.277 166.219 645.461 167.125C646.397 167.842 646.766 168.798 646.751 169.96C646.731 171.52 645.658 172.686 644.717 173.806C643.117 173.937 642.387 173.975 640.886 173.258C640.267 172.521 639.835 172.256 639.698 171.263C639.403 169.128 640.358 167.978 641.592 166.408Z"/>
	<path fill="#231F20" transform="scale(4.80758 4.80758)" d="M677.843 164.807C678.652 165.105 679.447 165.37 680.134 165.908C681.334 166.849 682.146 168.149 682.11 169.721C682.06 171.951 680.815 173.135 679.279 174.52C678.141 174.173 676.878 173.876 676.057 172.947C675.168 171.943 674.852 170.64 674.933 169.333C675.057 167.304 676.299 165.932 677.843 164.807Z"/>
	<path fill="#FEFEFE" transform="scale(4.80758 4.80758)" d="M432.437 155.855C436.499 153.407 440.291 151.177 444.739 149.472C452.736 146.408 461.361 144.878 469.685 142.991C476.098 141.538 482.43 139.748 488.887 138.491C503.491 135.647 523.002 133.474 537.844 133.565C543.199 133.598 548.607 134.485 553.932 135.02C560.117 135.642 566.327 135.974 572.515 136.595C574.236 140.758 576.836 189.86 576.454 196.254C576.638 207.972 577.317 219.964 578.33 231.648C579.708 247.546 585.914 285.439 580.214 298.972C568.661 302.715 557.128 304.828 545.083 306.247C542.994 306.494 540.514 307.223 538.48 307.268C538.705 307.999 539.288 309.072 538.922 309.757C538.495 310.559 537.895 311.096 537.31 311.773C537.25 311.842 537.205 311.923 537.153 311.998C519.026 314.982 500.611 314.997 482.401 316.877C483.536 316.285 484.197 315.766 485.047 314.808L484.941 314.012C483.399 313.005 481.525 313.068 479.74 312.94C469.404 313.117 458.945 313.264 448.672 311.964C447.153 310.989 445.787 309.873 444.39 308.732C435.73 285.345 428.179 180.805 432.437 155.855Z"/>
	<path fill="#4C484A" transform="scale(4.80758 4.80758)" d="M547.871 173.879C548.645 174.072 549.388 174.269 550.084 174.676C551.157 175.304 551.995 176.344 552.196 177.594C552.516 179.579 551.604 180.741 550.4 182.118C549.473 182.051 548.872 181.916 547.999 181.65C547.314 180.999 546.729 180.477 546.477 179.521C545.933 177.448 546.774 175.575 547.871 173.879Z"/>
	<path fill="#231F20" transform="scale(4.80758 4.80758)" d="M475.609 181.827C476.45 181.79 477.376 181.763 478.144 182.175C479.261 182.775 479.799 183.793 480.018 185C480.469 187.48 478.878 189.869 477.403 191.658C476.607 191.612 475.818 191.465 475.029 191.349C473.99 190.572 473.375 189.9 473.145 188.563C472.71 186.028 474.082 183.692 475.609 181.827Z"/>
	<path fill="#565051" transform="scale(4.80758 4.80758)" d="M479.74 312.94C486.436 311.495 498.078 311.456 505.433 310.854C516.506 309.948 527.442 308.377 538.48 307.268C538.705 307.999 539.288 309.072 538.922 309.757C538.495 310.559 537.895 311.096 537.31 311.773C537.25 311.842 537.205 311.923 537.153 311.998C519.026 314.982 500.611 314.997 482.401 316.877C483.536 316.285 484.197 315.766 485.047 314.808L484.941 314.012C483.399 313.005 481.525 313.068 479.74 312.94Z"/>
	<path fill="#231F20" transform="scale(4.80758 4.80758)" d="M519.29 180.08C520.817 180.529 521.201 180.48 522.204 181.776C522.472 186.609 520.796 202.779 519.837 207.844C523.463 209.239 527.291 210.591 529.381 214.14C530.382 215.841 530.593 217.721 530.064 219.615C529.15 222.893 526.17 225.308 523.247 226.776C517.697 229.562 512.302 229.521 506.522 227.719C506.073 227.336 505.296 226.769 504.944 226.26C504.294 225.32 504.401 224.561 504.599 223.502C508.714 222.006 515.508 226.625 522.958 222.522C524.589 221.624 526.688 219.692 526.895 217.717C527.609 210.933 519.982 212.774 517.106 209.809C515.319 204.56 517.879 186.631 519.16 180.659L519.29 180.08Z"/>
	<path fill="#231F20" transform="scale(4.80758 4.80758)" d="M752.246 259.466C751.797 258.568 751.537 257.762 751.457 256.758C751.15 252.929 752.263 250.129 754.866 247.324C763.166 238.381 781.51 233.352 793.432 233.088C801.936 232.899 810.114 234.3 818.556 234.996C825.547 235.572 832.924 235.317 839.737 237.06C844.229 238.209 848.33 240.575 852.589 242.358C854.774 243.272 857.728 243.898 859.455 245.55C860.936 247.386 861.29 249.942 861.752 252.213L858.193 256.589C858.402 256.632 858.612 256.672 858.821 256.717C859.131 256.785 859.44 256.863 859.75 256.93C859.934 256.97 860.12 256.999 860.304 257.038C862.808 257.57 864.972 259.334 866.359 261.465C867.547 263.292 867.907 265.372 867.333 267.48C866.594 270.201 864.553 271.987 862.343 273.561C864.274 275.792 866.36 277.755 866.106 280.975C865.827 284.505 864.593 288.196 863.746 291.647C861.164 302.17 858.459 312.021 854.638 322.223C853.602 324.988 848.068 334.152 848.269 336.123C849.116 338.914 848.967 341.84 848.974 344.726C848.991 351.724 851.336 359.071 852.104 366.089C853.605 379.806 859.371 448.046 850.558 457.407C845.262 463.032 827.923 470.438 825.096 474.03L825.147 475.811C827.182 477.906 838.858 503.67 840.195 507.383C841.881 510.226 843.338 513.198 844.842 516.14C848.266 515.68 850.812 515.252 853.872 517.359C855.038 518.162 855.683 519.329 855.924 520.71C856.118 521.818 856.076 522.919 855.614 523.932C855.186 536.64 844.752 550.304 835.787 558.611C829.599 564.345 820.593 572.68 811.607 572.406C809.681 572.348 808.018 571.783 806.72 570.299C804.891 568.21 804.617 564.069 804.996 561.463C805.178 560.215 805.433 558.977 805.69 557.743C807.201 549.077 812.868 540.965 818.878 534.796C821.787 530.532 827.236 527.426 831.684 525.042C825.642 512.393 814.745 493.007 811.706 479.979C807.907 480.733 789.288 482.894 787.232 484.478C788.915 491.912 787.695 524.513 786.622 533.103C786.501 534.869 786.062 535.901 787.24 537.358C789.624 540.308 792.287 541.071 792.337 545.524C792.368 548.23 790.426 550.694 790.356 553.325C790.296 555.616 792.792 555.685 790.055 558.151C783.824 563.763 752.2 574.282 743.401 573.609C739.482 573.31 735.413 571.907 732.863 568.773C731.134 566.649 730.393 564.016 730.791 561.305C731.613 555.701 736.653 551.364 741.074 548.31C750.061 542.101 759.31 538.864 769.891 536.459C770.958 530.812 770.663 524.629 770.96 518.883C771.36 511.128 772.082 503.393 772.446 495.641C772.498 491.796 772.863 487.935 773.131 484.098C770.59 483.843 768.031 483.601 765.505 483.221Q764.66 483.092 763.823 482.922Q762.986 482.751 762.159 482.538Q761.331 482.325 760.516 482.071Q759.7 481.816 758.898 481.521Q758.096 481.226 757.31 480.891Q756.524 480.556 755.756 480.182Q754.988 479.808 754.24 479.395Q753.492 478.983 752.766 478.533Q752.039 478.084 751.336 477.598Q750.633 477.112 749.956 476.592Q749.278 476.072 748.628 475.518Q747.977 474.964 747.355 474.378Q746.734 473.792 746.142 473.175Q745.551 472.559 744.991 471.913Q744.432 471.268 743.905 470.595Q743.379 469.922 742.887 469.223C735.838 459.219 732.634 443.965 731.776 431.896C730.696 416.694 733.272 391.116 735.991 375.916C721.219 379.71 689.883 382.439 674.939 379.883C666.514 378.443 659.827 375.249 654.77 368.203C654.199 368.816 653.619 369.424 652.992 369.981C648.064 374.361 638.831 374.888 632.506 374.494C626.914 374.145 616.052 372.309 612.625 367.455C611.529 365.903 611.749 364.542 612.099 362.807C612.132 362.64 612.169 362.474 612.205 362.308C611.49 360.529 607.125 358.561 605.554 357.172C604.497 356.237 604.3 355.613 604.156 354.256C605.134 352.394 607.563 351.436 609.463 350.817C608.424 350.073 607.442 349.134 606.463 348.306C607.897 347.001 608.943 346.038 610.873 345.6C612.663 344.713 615.835 344.312 617.884 343.694C617.662 343.529 617.437 343.37 617.218 343.201C614.447 341.065 610.548 336.57 610.381 332.933C610.333 331.893 610.558 330.498 611.428 329.801C612.939 328.591 615.4 328.477 617.26 328.633C625.893 329.412 633.67 332.931 641.651 336.088C641.513 333.783 641.824 331.444 642.015 329.146C642.069 327.328 642.511 325.534 642.847 323.748C643.19 322.816 643.534 321.874 643.969 320.98C645.036 318.786 647.417 316.925 649.743 316.218C650.939 315.854 652.315 315.813 653.385 316.526C654.575 317.32 655.207 318.588 655.529 319.928L655.605 320.345C657.395 330.645 657.043 344.206 661.994 353.501L662.609 353.902C678.943 348.499 710.937 352.521 729.117 352.499C731.176 352.544 734.685 353.064 736.234 351.607L735.907 348.951L735.877 348.344C734.904 342.201 735.486 335.41 736.033 329.246C736.107 326.31 737.19 323.241 736.206 320.399C734.975 319.289 734.313 319.531 732.693 319.453C728.311 319.999 722.585 321.392 718.346 320.166C717.467 319.453 716.933 318.919 716.647 317.786C715.215 312.113 718.545 301.476 721.719 296.755C723.326 294.365 725.087 292.482 728.024 291.975C730.567 291.536 735.613 291.773 737.782 293.276C738.752 293.949 738.892 293.911 739.111 295.115C737.878 296.004 735.928 295.84 734.478 295.774C731.169 295.624 729.155 295.773 726.664 298.136C721.963 302.593 721.568 310.343 721.296 316.4L732.523 315.802C733.437 315.579 734.782 315.387 735.587 314.926C737.011 314.11 736.985 312.474 737.309 311.029C739.068 310.867 740.084 310.564 741.621 309.683C741.17 301.973 744.433 292.215 746.211 284.741L746.966 282.015C747.87 277.043 749.297 271.967 751.065 267.238C751.669 265.457 752.496 263.755 753.274 262.044L752.246 259.466Z"/>
	<path fill="#4C484A" transform="scale(4.80758 4.80758)" d="M788.544 260.487C789.362 261.742 790.06 262.027 791.364 262.657L790.329 266.878L788.082 266.956L787.757 267.455L788.808 268.594C788.16 269.465 787.059 269.385 786.015 269.586C786.52 266.507 787.654 263.476 788.544 260.487Z"/>
	<path fill="#565051" transform="scale(4.80758 4.80758)" d="M610.873 345.6L611.217 346.377C611.693 348.498 613.795 349.577 615.541 350.714C613.671 350.911 612.094 350.79 610.235 350.531L610.377 350.998L609.502 350.93L609.463 350.817C608.424 350.073 607.442 349.134 606.463 348.306C607.897 347.001 608.943 346.038 610.873 345.6Z"/>
	<path fill="#FEFEFE" transform="scale(4.80758 4.80758)" d="M749.94 389.098L750.95 389.493C751.168 389.77 751.534 389.979 751.605 390.325C752.126 392.854 750.856 400.445 750.667 403.649C750.322 409.522 751.026 415.306 750.851 421.147C750.486 420.806 750.3 420.668 750.013 420.204C746.436 414.431 748.983 395.832 749.94 389.098Z"/>
	<path fill="#FEFEFE" transform="scale(4.80758 4.80758)" d="M751.307 373.98C752.703 373.99 754.511 373.861 755.742 374.606C757.011 375.375 757.685 376.981 758.085 378.35C758.661 380.324 758.887 383.097 757.936 384.945C755.27 385.542 752.314 384.767 749.622 384.452C749.118 384.538 748.339 384.684 747.848 384.707C746.759 384.756 746.333 384.829 745.59 384.058C745.726 383.93 745.85 383.788 745.997 383.675C747.227 382.728 748.654 382.653 750.129 382.783C751.048 382.864 751.698 382.908 752.613 382.68C751.86 380.229 749.39 379.899 748.934 377.248C749.325 375.759 750.243 375.011 751.307 373.98Z"/>
	<path fill="#FEFEFE" transform="scale(4.80758 4.80758)" d="M790.882 441.924C796.122 442.055 801.368 441.66 806.598 441.87C808.448 441.945 810.298 441.932 811.631 443.372C811.907 444.775 811.761 445.142 811.328 446.527C806.43 446.505 794.354 447.307 790.595 445.151C789.783 444.685 789.955 444.548 789.745 443.711L790.882 441.924Z"/>
	<path fill="#FEFEFE" transform="scale(4.80758 4.80758)" d="M790.923 448.057C797.28 448.605 803.721 448.715 810.098 448.988C809.787 450.442 809.444 451.866 809.296 453.349C808.918 457.116 807.972 460.618 805.844 463.805C804.556 465.734 802.804 467.551 800.407 467.894C797.417 468.322 795.431 466.769 793.21 465.003C792.494 463.995 792.043 463.106 791.572 461.976C792.181 461.622 796.312 465.947 798.708 466.036C800.214 466.092 801.465 465.568 802.59 464.594C806.219 461.454 806.925 455.931 807.241 451.455C803.552 451.482 795.641 452.793 792.551 450.845C791.442 450.146 791.181 449.262 790.923 448.057Z"/>
	<path fill="#FEFEFE" transform="scale(4.80758 4.80758)" d="M734.581 363.237C735.332 363.034 735.994 362.987 736.767 362.93L737.419 363.651L737.204 364.376C723.735 367.629 694.924 365.621 680.328 364.816C679.121 364.752 678.001 364.683 676.846 364.289C675.861 363.953 676.148 364.245 675.774 363.521C688.705 362.941 701.802 363.815 714.75 363.906C721.334 363.952 727.997 363.479 734.581 363.237Z"/>
	<path fill="#FEFEFE" transform="scale(4.80758 4.80758)" d="M786.863 372.869L787.469 373.755C786.688 376.864 783.986 380.302 782.332 383.123C777.167 391.936 771.855 400.307 765.711 408.477C761.571 413.982 755.719 419.555 752.659 425.638C752.006 424.848 751.879 424.596 752.086 423.539C752.326 422.315 753.123 421.096 753.826 420.091C756.254 416.621 759.418 413.671 762.044 410.35C765.203 406.356 767.989 401.877 770.915 397.698C774.316 392.84 782.766 375.345 786.447 373.11C786.584 373.027 786.724 372.949 786.863 372.869Z"/>
	<path fill="#FEFEFE" transform="scale(4.80758 4.80758)" d="M748.043 432.992C749.035 432.858 749.938 432.809 750.93 432.937C753.016 433.206 755.294 433.946 756.583 435.713C757.73 437.285 757.97 439.158 757.588 441.037C756.936 444.253 754.791 446.486 752.16 448.246C751.198 448.57 750.382 448.818 749.361 448.912C747.577 449.076 745.542 448.298 744.305 447.044C742.91 445.632 742.654 443.39 742.829 441.516C743.197 437.586 745.087 435.409 748.043 432.992Z"/>
	<path fill="#231F20" transform="scale(4.80758 4.80758)" d="M747.772 436.909C748.892 436.982 750.298 437.108 751.351 437.483C752.644 437.943 753.446 438.849 753.873 440.149C754.55 442.213 753.189 444.97 752.173 446.721C749.913 446.654 748.104 446.71 746.324 445.11C745.398 444.277 744.844 443.254 744.865 441.988C744.905 439.734 746.251 438.383 747.772 436.909Z"/>
	<path fill="#FEFEFE" transform="scale(4.80758 4.80758)" d="M822.487 475.137L825.607 481.168C828.216 488.92 832.36 496.689 836.196 503.902C838.116 509.383 840.927 514.556 843.585 519.705C841.13 521.568 838.75 522.897 835.968 524.205C827.631 510.109 820.724 494.362 814.346 479.3C817.099 478.011 819.788 476.536 822.487 475.137Z"/>
	<path fill="#FEFEFE" transform="scale(4.80758 4.80758)" d="M775.818 484.012C778.484 483.815 782.217 483.115 784.757 483.871C785.638 484.134 785.702 484.876 786.082 485.644C784.249 492.615 785.284 505.968 785.19 513.785Q785.009 522.751 784.36 531.696C784.211 533.555 784.039 535.407 784.037 537.272C780.703 537.647 777.351 538.226 774.018 537.615C772.703 533.878 774.346 508.621 774.592 503.201C775.8 497.246 775.334 490.148 775.818 484.012Z"/>
	<path fill="#B3B2B2" transform="scale(4.80758 4.80758)" d="M774.518 561.304C766.196 564.565 748.973 570.844 740.429 568.31C738.436 567.719 736.187 566.444 735.377 564.418C734.76 562.874 735.113 561.247 735.837 559.822C739.017 553.556 753.851 544.546 760.338 542.51C761.231 542.23 761.612 542.003 762.468 542.459C761.548 543.274 760.627 544.048 760.295 545.298C759.882 546.85 760.6 548.459 761.522 549.677C763.154 551.832 765.541 553.356 768.243 553.68C771.091 554.02 773.648 553.736 775.956 551.961C776.1 551.85 776.238 551.732 776.38 551.618C779.184 550.593 782.258 549.634 785.119 548.767C786.256 550.093 786.002 551.765 785.795 553.472C785.604 555.048 784.211 556.504 782.947 557.365C780.586 558.972 777.231 560.397 774.518 561.304Z"/>
	<path fill="#FEFEFE" transform="scale(4.80758 4.80758)" d="M844.525 341.553C844.84 344.378 845.638 347.97 844.05 350.497C839.997 353.199 834.996 355.054 830.545 357.066C804.931 368.645 775.565 375.224 747.512 369.9Q744.52 369.327 741.626 368.378C741.054 365.253 740.444 362.147 740.19 358.976C740.314 359.05 740.435 359.129 740.561 359.197C751.707 365.242 780.791 362.825 792.94 359.212C810.385 356.017 828.633 349.369 844.525 341.553Z"/>
	<path fill="#FEFEFE" transform="scale(4.80758 4.80758)" d="M645.711 324.979C646.26 323.468 646.818 321.935 648.007 320.795C649.03 319.814 649.531 319.619 650.927 319.578C652.079 320.407 652.307 320.939 652.752 322.273C652.114 329.451 655.858 351.799 660.145 357.391C660.249 357.527 660.376 357.643 660.492 357.769C661.637 357.566 662.659 357.268 663.757 356.884C663.804 356.904 663.849 356.934 663.899 356.945C664.499 357.067 665.233 357.111 665.807 357.357C667.89 358.245 669.324 359.994 670.169 362.052C670.929 363.902 671.592 366.545 670.483 368.391C669.794 369.537 668.443 370.202 667.177 370.478C664.242 371.118 659.488 370.239 657.11 368.359C655.92 367.418 656.044 366.338 655.832 364.953C654.939 364.922 653.76 365.938 653.024 366.451C652.046 367.131 651.123 367.909 650.027 368.402C641.761 372.125 626.467 371.439 618.316 367.65C617.023 367.049 615.704 366.392 615.186 365.041C619.468 362.857 627.64 367.829 633.128 365.282C634.14 364.812 634.099 364.828 634.473 363.72C634.389 363.57 634.325 363.408 634.223 363.27C631.421 359.487 623.281 360.461 619.059 359.51C616.399 358.911 610.655 357.656 609.2 355.344C611.984 353.405 623.389 355.99 627.221 356.455C628.836 356.651 630.173 357.152 631.492 356.12L631.575 355.039C628.832 352.134 619.565 351.464 615.541 350.714C613.795 349.577 611.693 348.498 611.217 346.377C612.792 346.809 633.113 350.293 633.451 350.239C633.832 350.178 634.157 349.927 634.51 349.771L634.706 348.791C631.613 344.25 622.603 341.408 617.865 337.826C616.262 336.614 614.517 335.364 614.22 333.297L615.251 332.46C617.568 331.846 619.168 332.33 621.416 332.892C627.257 335.075 633.526 337.391 639.572 338.861L644.933 340.216C645.019 336.76 645.2 333.301 645.339 329.847L645.711 324.979Z"/>
	<path fill="#FEFEFE" transform="scale(4.80758 4.80758)" d="M754.005 260.818C761.671 266.433 771.707 264.81 780.239 262.537C782.667 261.89 785.206 260.856 787.7 260.572C787.981 260.54 788.263 260.515 788.544 260.487C787.654 263.476 786.52 266.507 786.015 269.586L785.708 271.579C783.152 289.5 789.387 291.068 794.756 305.504C796.085 300.912 797.356 294.565 801.95 292.008C803.053 291.394 804.37 291.044 805.594 291.512C807.285 292.157 808.49 294.152 809.033 295.805C809.762 298.025 809.89 300.647 810.161 302.968C809.402 305.105 809.289 305.864 807.176 306.918C803.331 308.836 794.87 308.786 793.65 311.36C793.859 313.423 794.833 315.641 796.466 316.987C798.216 318.429 801.06 319.528 803.324 319.22C809.761 329.173 819.667 337.191 829.696 343.267C825.048 344.705 820.641 346.495 816.169 348.389C802.15 352.338 755.581 363.261 743.288 356.302C741.976 355.56 741.37 354.5 740.691 353.217L740.024 348.609L739.768 344.324C740.072 339.753 739.933 335.094 739.969 330.508C739.964 328.887 739.634 327.552 740.563 326.194C742.458 326.164 748.451 329.788 751.278 330.678C752.843 331.006 753.866 330.766 755.216 329.953C755.824 328.853 755.733 328.844 755.469 327.598C754.065 326.29 753.174 326.275 751.332 325.847C746.416 324.893 743.587 323.085 740.336 319.39C740.678 316.138 741.132 312.915 741.621 309.683C741.17 301.973 744.433 292.215 746.211 284.741L746.966 282.015C747.87 277.043 749.297 271.967 751.065 267.238C751.669 265.457 752.496 263.755 753.274 262.044L754.005 260.818Z"/>
	<path fill="#231F20" transform="scale(4.80758 4.80758)" d="M756.026 282.417C756.947 282.392 757.846 282.464 758.766 282.519C759.933 283.336 760.539 283.747 760.936 285.167C761.698 287.899 760.009 291.695 758.817 294.088C757.662 294.068 756.615 293.986 755.62 293.318C754.657 292.672 754.129 291.689 753.896 290.577C753.308 287.782 754.627 284.759 756.026 282.417Z"/>
	<path fill="#B3B2B2" transform="scale(4.80758 4.80758)" d="M755.375 256.792C755.121 255.943 755.139 255.405 755.163 254.53C758.246 248.156 765.295 245.078 771.518 242.494C777.248 240.115 783.31 238.349 789.491 237.691C800.398 236.53 827.141 239.013 838.039 241.505C841.668 242.335 845.041 243.695 848.467 245.128C850.983 246.212 853.97 247.131 855.957 249.054C856.398 250.367 856.588 250.635 855.905 251.945C854.444 254.751 850.001 254.982 850.305 258.589C853.281 261.593 862.159 259.509 862.576 264.733C862.662 265.819 862.1 266.813 861.27 267.471C859.307 269.027 856.364 269.595 854.951 271.746C854.872 273.412 855.273 274.308 856.37 275.576C857.759 277.182 859.441 278.221 861.23 279.315C859.516 294.658 855.381 308.486 850.156 322.948C848.488 327.567 845.652 332.519 844.553 337.18C840.977 337.766 837.255 339.888 833.769 341.082C823.092 336.655 812.641 327.578 806.367 317.911C807.194 317.471 808.037 317.024 808.831 316.526C811.588 314.796 812.359 311.202 812.925 308.249C813.57 306.432 814.009 304.669 814.058 302.73C814.17 298.224 811.93 291.081 808.496 287.929C802.14 282.094 796.756 293.883 792.812 293.956C792.323 293.595 792.289 293.612 791.854 293.048C788.605 288.835 788.827 277.456 789.253 272.298C789.522 270.488 789.966 268.674 790.329 266.878L791.364 262.657C792.147 260.595 793.258 258.649 794.021 256.573C794.558 255.113 794.551 254.199 793.895 252.809C792.238 252.45 786.743 256.12 784.716 256.97Q781.263 258.383 777.639 259.271Q774.015 260.159 770.299 260.502C764.644 261.025 759.86 260.531 755.375 256.792Z"/>
	<path fill="#231F20" transform="scale(4.80758 4.80758)" d="M108.603 413.816C107.311 392.539 112.169 368.456 116.522 347.744C117.717 342.054 118.452 336.408 120.341 330.876C122.273 325.22 124.67 320.358 128.318 315.611C135.508 306.256 146.582 297.327 157.251 292.3C162.298 289.922 167.868 288.263 173.173 286.555C177.841 285.052 182.658 283.267 187.548 282.69C191.312 282.247 199.13 282.08 201.956 284.784C203.085 285.865 202.989 286.097 203.006 287.585C216.846 296.545 223.194 311.674 229.815 326.093C230.659 327.934 230.905 328.204 232.99 327.83C237.939 324.854 244.174 323.673 249.807 325.054C252.429 325.697 256.525 327.029 257.828 329.691C258.535 331.137 258.73 332.807 258.12 334.318C257.837 335.016 257.473 335.671 257.083 336.314C250.455 342.204 243.071 343.736 236.224 348.431C238.137 353.132 239.659 357.351 240.326 362.393Q240.806 367.232 240.558 372.089C240.673 374.419 240.505 376.808 240.451 379.143C244.797 384.134 248.738 389.466 252.753 394.723C261.662 383.926 279.19 369.48 291.04 361.547C299.688 355.759 309.347 350.661 316.672 343.212C317.974 341.888 318.711 341.292 320.608 341.275L321.729 342.419C325.441 346.562 327.697 352.626 330.061 357.643C331.513 360.705 333.965 364.369 333.204 367.844C331.492 370.427 328.98 372.457 326.449 374.22C318.49 379.766 309.367 384.118 300.934 388.912C292.339 393.797 284.004 399.149 275.408 404.014C269.729 407.228 263.384 409.875 258.304 413.963L258.365 414.596C259.334 424.003 261.348 433.288 262.196 442.742C263.615 458.553 263.769 500.655 254.302 512.455C249.276 518.72 241.796 521.969 234.777 525.453C244.473 527.58 254.357 530.278 260.069 539.174C263.715 544.852 264.143 551.763 262.532 558.191C260.991 564.343 257.67 568.649 252.497 572.125C251.232 572.975 249.747 573.726 248.792 574.912C249.572 575.345 250.187 575.622 251.062 575.805C253.868 576.317 256.595 576.973 259.353 577.692C270.349 579.75 289.548 581.016 296.626 590.813C297.763 592.387 298.367 594.294 298.024 596.235C297.501 599.188 295.11 601.59 292.68 603.149C284.199 608.588 271.643 607.753 262.275 605.489C253.561 603.382 235.008 594.706 230.304 586.962Q229.273 585.274 228.605 583.412C227.082 574.628 235.875 571.321 241.214 566.234C244.53 563.073 247.478 558.741 248.986 554.405C249.995 551.503 249.998 548.68 248.627 545.901C243.891 536.305 231.26 531.631 221.864 528.328C212.176 531.421 201.094 534.465 191.006 535.681C198.873 540.705 204.086 545.82 208.993 553.776L207.973 555.354L207.104 555.522C206.347 554.803 205.607 554.024 204.799 553.365C207.344 558.269 208.953 563.318 211.091 568.373C212.517 568.97 212.682 569.022 213.299 570.526C213.551 571.142 213.678 571.96 213.821 572.598L214.225 572.141C214.296 572.675 214.373 573.209 214.411 573.747C215.127 583.903 206.75 593.526 200.658 600.805C214.188 605.216 235.362 600.203 245.682 611.515C248.255 614.335 250.024 618.619 249.753 622.472C249.592 624.768 248.552 626.635 246.754 628.055C239.472 633.804 225.615 632.542 217.126 631.275C205.689 629.568 187.329 624.799 180.367 614.857C178.849 612.689 178.045 610.072 178.548 607.434C179.715 601.323 185.641 598.635 190.165 595.35C195.415 591.538 198.429 584.827 199.349 578.522C200.885 567.994 194.864 553.092 187.137 545.792C183.761 542.602 178.701 540.128 176.128 536.249C175.941 535.968 175.77 535.676 175.591 535.39C169.685 532.385 164.248 532.235 158.7 527.028C152.67 521.369 153.197 513.192 152.952 505.602C146.952 506.384 123.439 510.455 119.647 508.323C118.156 503.285 117.401 497.369 117.019 492.125C115.763 487.28 114.959 482.243 113.781 477.362C109.701 455.679 108.435 435.892 108.603 413.816Z"/>
	<path fill="#FEFEFE" transform="scale(4.80758 4.80758)" d="M252.89 482.249L253.854 482.659C254.395 483.442 254.657 483.958 254.843 484.914C255.209 486.799 254.514 488.409 253.462 489.909C252.054 490.587 251.976 490.53 250.431 490.227L250.057 490.719C250.277 491.313 250.634 492.109 250.721 492.757C250.905 494.123 249.839 495.163 249.042 496.149C248.963 496.102 248.886 496.053 248.806 496.008C247.778 495.423 246.699 494.92 246.053 493.875C245.231 492.548 244.516 490.113 245.043 488.605C246.163 485.401 247.622 487.442 249.627 486.755C250.585 485.061 251.569 483.679 252.89 482.249Z"/>
	<path fill="#FEFEFE" transform="scale(4.80758 4.80758)" d="M228.471 416.022L228.217 413.57L228.732 413.201C231.959 415.657 233.545 419.507 237.405 421.202C235.869 428.715 236.392 436.92 236.413 444.549C230.636 436.652 230.179 425.462 228.471 416.022Z"/>
	<path fill="#FEFEFE" transform="scale(4.80758 4.80758)" d="M310.243 355.334C311.317 355.549 311.36 355.65 312.117 356.458C311.903 357.728 311.298 358.188 310.295 358.938C306.239 361.972 301.633 364.54 297.403 367.352C286.174 374.817 264.83 389.629 256.412 399.118L255.89 399.761L255.227 399.823C255.243 399.499 255.21 399.169 255.273 398.851C256.712 391.59 301.586 361.924 310.243 355.334Z"/>
	<path fill="#FEFEFE" transform="scale(4.80758 4.80758)" d="M252.736 417.03C254.452 421.676 254.752 458.155 254.336 465.459C254.184 468.127 252.525 470.72 251.354 473.083C244.153 471.078 240.105 467.04 234.469 462.563C230.265 459.223 225.799 456.161 221.787 452.587C213.836 445.501 206.776 437.307 199.427 429.607C198.751 428.924 197.484 428.048 197.424 427.099C204.274 430.981 210.153 438.823 215.832 444.376C220.381 448.825 242.656 468.919 247.384 469.443C248.675 469.585 250.002 469.004 250.974 468.16C252.13 467.156 252.495 466.106 252.758 464.654C253.62 459.89 253.092 454.583 252.989 449.755C252.764 439.234 252.067 428.45 252.679 417.95L252.736 417.03Z"/>
	<path fill="#FEFEFE" transform="scale(4.80758 4.80758)" d="M313.061 351.07L319.574 345.117Q322.233 348.958 324.756 352.889C325.554 354.51 326.299 356.192 327.213 357.75L330.683 364.629C328.272 367.057 325.813 368.88 322.89 370.616C320.374 364.13 317.564 356.433 313.061 351.07Z"/>
	<path fill="#FEFEFE" transform="scale(4.80758 4.80758)" d="M225.085 395.771C230.94 394.303 234.649 389.574 237.942 384.861C238.169 393.96 236.937 403.29 237.474 412.301C237.319 413.447 237.107 414.579 236.901 415.717L236.188 415.241L236.271 414.991L235.822 414.449L235.813 414.796Q231.818 410.674 227.647 406.729L228.412 405.261C228.587 401.663 225.929 399.124 225.085 395.771Z"/>
	<path fill="#FEFEFE" transform="scale(4.80758 4.80758)" d="M251.062 575.805C253.868 576.317 256.595 576.973 259.353 577.692C259.345 579.173 259.563 580.419 259.898 581.859Q263.132 582.574 266.358 583.326C273.972 584.184 287.745 585.753 293.153 591.789L293.48 593.047L292.318 594.778L291.696 593.565L291.063 593.566C291.071 594.363 291.134 594.907 291.296 595.671L290.588 595.798C288.75 593.912 287.171 592.13 284.761 590.968C285.544 591.917 288.988 594.997 288.94 595.729C286.974 594.849 279.866 588.63 278.508 589.112L278.457 588.09L278.114 588.721C281.244 591.462 284.88 593.864 287.696 596.904C283.942 595.418 281.299 592.471 277.882 590.441C276.537 589.641 275.604 588.587 274.586 587.416C273.549 587.03 272.809 587.129 271.722 587.241C274.504 588.939 279.23 591.209 280.37 594.517C276.501 592.399 271.32 587.074 266.894 586.877L266.484 587.149L266.038 587.025C265.663 586.883 265.254 586.858 264.859 586.794C265.995 587.967 267.071 589.125 268.073 590.417C265.584 588.784 262.154 587.806 260.077 585.74C259.358 585.025 259.087 584.706 258.032 584.497L258.139 585.142C263.202 589.875 270.411 592.609 276.204 596.413L276.139 596.708C269.359 594.76 263.312 590.072 257.631 586.069C256.313 585.14 255.265 584.14 253.644 584.411L253.773 584.156L253.972 584.746Q256.612 586.389 259.049 588.321Q261.486 590.253 263.688 592.449C257.428 590.673 250.388 582.279 244.71 578.85C244.466 578.703 244.218 578.561 243.972 578.416L244.018 577.747C246.066 577.802 248.152 578.73 250.082 579.381C251.048 578.172 250.912 577.323 251.062 575.805Z"/>
	<path fill="#4C484A" transform="scale(4.80758 4.80758)" d="M251.062 575.805C253.868 576.317 256.595 576.973 259.353 577.692C259.345 579.173 259.563 580.419 259.898 581.859C256.64 581.263 253.312 580.173 250.082 579.381C251.048 578.172 250.912 577.323 251.062 575.805Z"/>
	<path fill="#FEFEFE" transform="scale(4.80758 4.80758)" d="M246.707 565.986C250.641 561.101 253.863 555.544 253.032 548.999C252.298 543.216 248.494 538.494 243.903 535.149C240.09 532.371 231.464 530.201 229.076 527.27C233.296 526.438 247.196 531.962 250.967 534.513C255.779 537.769 259.975 543.529 260.804 549.3C261.594 554.797 259.659 559.978 256.348 564.307C254.218 567.092 251.261 569.822 248.149 571.424C245.312 573.345 240.895 573.437 237.588 573.847C240.872 571.391 243.854 568.944 246.707 565.986Z"/>
	<path fill="#FEFEFE" transform="scale(4.80758 4.80758)" d="M181.086 535.82C189.905 536.995 196.571 542.047 201.861 548.994C202.923 550.389 203.863 551.883 204.799 553.365C207.344 558.269 208.953 563.318 211.091 568.373C211.426 570.569 211.647 572.795 211.513 575.019C210.961 584.172 204.529 592.567 198.042 598.559L192.269 599.643C195.09 596.808 197.378 593.695 199.2 590.13C207.701 573.498 202.098 555.763 189.185 543.192C187.152 541.212 181.841 538.179 181.086 535.82Z"/>
	<path fill="#FEFEFE" transform="scale(4.80758 4.80758)" d="M184.145 384.851C186.85 387.308 189.581 389.742 192.478 391.973C199.515 397.394 207.464 400.157 216.391 398.948C218.164 398.973 219.36 398.694 220.81 399.923C222.518 401.372 223.487 404.743 224.344 406.788C224.035 409.228 223.587 411.72 223.535 414.177Q223.546 419.568 223.619 424.959C225.277 427.63 228.373 430.423 229.031 433.604L228.489 433.448L229 433.198C228.932 433.035 226.791 432.084 226.24 431.579C223.651 429.207 221.214 426.578 218.914 423.923C214.84 419.224 211.015 414.306 206.737 409.787C199.155 401.78 190.37 393.962 184.145 384.851Z"/>
	<path fill="#FEFEFE" transform="scale(4.80758 4.80758)" d="M187.266 295.549C187.915 293.075 188.641 287.749 191.124 286.566C193.427 285.469 197.758 287.035 200.141 287.582C199.642 289.4 199.495 291.255 199.297 293.123C195.958 309.584 187.197 326.487 177.811 340.297C177.343 340.986 177.515 340.694 177.192 341.574L175.648 342.675C172.68 342.351 169.749 340.302 167.124 338.911C173.026 324.579 182.897 309.915 187.266 295.549Z"/>
	<path fill="#B3B2B2" transform="scale(4.80758 4.80758)" d="M214.735 625.34C212.329 623.302 209.971 621.035 207.205 619.503L206.95 619.818C208.549 621.48 210.328 622.801 212.168 624.173L211.985 624.431C208.185 623.542 208.99 622.65 206.151 621.31L206.962 622.686C202.402 623.418 200.554 617.505 197.541 615.608C198.153 617.545 199.81 618.731 200.298 620.722C197.737 619.212 189.797 610.028 188.866 607.322C190.102 607.601 189.518 607.517 190.615 607.608C190.234 606.97 189.615 606.128 189.42 605.42C189.117 604.316 189.52 604.002 190.123 603.168C191.059 602.965 192.073 602.607 193.033 602.739C196.613 603.229 199.897 604.878 203.391 605.712C208.367 606.9 213.446 606.903 218.488 607.366L223.962 607.524C229.882 608.374 239.365 610.189 243.621 614.812C244.308 616.047 244.934 617.231 245.438 618.558C245.471 620.35 245.816 621.434 244.602 622.903C242.914 624.946 240.429 625.249 237.969 625.361C237.644 624.698 237.762 625.071 237.669 624.226L237.091 624.1C236.645 625.045 236.535 625.122 235.648 625.684C230.7 626.028 218.462 625.25 214.484 622.442C213.809 621.965 213.348 621.736 212.573 621.468L212.475 621.714C214.386 624.292 217.005 624.272 219.674 625.65L214.735 625.34Z"/>
	<path fill="#FEFEFE" transform="scale(4.80758 4.80758)" d="M177.455 368.569C179.054 371.345 180.232 387.015 180.91 391.074C181.852 396.709 183.218 402.204 184.029 407.878C185.6 418.873 188.834 429.172 191.252 439.964C193.592 450.409 195.153 460.985 197.334 471.464C198.669 477.877 202.13 488.747 201.329 494.978C201.234 494.848 201.121 494.729 201.043 494.588C200.913 494.349 200.82 494.091 200.708 493.842C198.363 493.57 174.821 497.534 171.356 498.454C171.145 498.51 170.935 498.571 170.724 498.63C168.429 489.943 167.03 480.847 165.372 472.011C163.527 462.174 161.411 452.203 160.252 442.261C158.154 424.245 159.02 406.495 160.628 388.492C161.664 382.006 162.526 375.51 162.6 368.935C164.288 370.413 166.069 371.048 167.843 372.28C172.669 375.633 174.284 454.892 175.46 466.572C175.893 470.877 178.681 493.309 181.242 495.409C181.968 493.448 177.437 471.098 177.045 466.777C175.584 450.673 175.296 434.57 174.415 418.436Q173.038 395.372 170.325 372.427C172.906 371.31 175.189 370.265 177.455 368.569Z"/>
	<path fill="#FEFEFE" transform="scale(4.80758 4.80758)" d="M112.84 411.636C113.539 386.259 116.261 357.355 124.245 333.202C130.757 313.501 146.85 302.525 164.605 293.546C163.492 296.047 162.139 298.481 160.886 300.918C156.119 314.774 150.013 327.938 145.041 341.66C140.627 353.843 135.156 373.979 134.099 386.873C132.566 405.55 134.672 424.953 135.789 443.619C136.904 462.26 137.698 484.328 141.119 502.592C138.856 502.798 136.595 503.017 134.324 503.135C130.184 483.462 129.483 463.276 128.155 443.294C126.602 419.938 123.467 383.258 128.787 361.164C132.863 344.238 144.901 323.147 146.489 306.716C144.102 312.35 142.578 318.47 140.446 324.235C135.93 336.453 128.615 352.136 126.451 364.594C124.336 376.771 125.023 389.266 125.345 401.555C125.544 409.149 125.352 416.764 125.677 424.35C126.053 433.128 127.033 441.891 127.579 450.662C128.492 465.311 129.175 489.997 133.167 503.466C130.67 503.659 128.166 503.904 125.665 503.999C123.561 491.223 123.1 478.605 122.382 465.709C121.895 456.987 121.032 448.292 120.634 439.563C120.256 431.261 121.098 421.765 119.205 413.667C118.802 436.722 120.44 459.812 121.903 482.804C122.28 488.74 124.837 498.814 123.817 504.072L123.356 504.304C121.014 500.016 121.465 494.177 120.559 489.417C119.838 485.318 118.961 481.235 118.153 477.151C116.629 477.084 115.29 477.12 113.781 477.362C109.701 455.679 108.435 435.892 108.603 413.816L108.957 413.844C108.986 414.292 109.021 415.064 109.11 415.483C109.374 416.722 109.621 416.832 110.64 417.418L111.47 416.955C112.565 415.182 112.337 414.244 112.345 412.192L112.84 411.636Z"/>
	<path fill="#4C484A" transform="scale(4.80758 4.80758)" d="M112.345 412.192L112.84 411.636C113.149 418.581 112.931 425.539 113.133 432.488C113.565 447.345 114.917 462.627 118.153 477.151C116.629 477.084 115.29 477.12 113.781 477.362C109.701 455.679 108.435 435.892 108.603 413.816L108.957 413.844C108.986 414.292 109.021 415.064 109.11 415.483C109.374 416.722 109.621 416.832 110.64 417.418L111.47 416.955C112.565 415.182 112.337 414.244 112.345 412.192Z"/>
	<path fill="#FEFEFE" transform="scale(4.80758 4.80758)" d="M166.889 293.298C173.703 290.374 181.086 289.002 188.001 286.029C187.523 289.353 186.723 292.565 185.915 295.82C184.522 300.304 167.628 336.212 165.27 338.929C165.09 339.135 163.967 339.762 163.894 339.798C163.733 339.878 162.524 340.32 162.396 340.369C159.805 341.361 158.29 342.799 157.221 345.371C156.13 347.996 155.464 351.059 155.187 353.886C155.511 359.614 159.109 364.179 162.23 368.728C160.234 381.894 157.951 395.776 157.526 409.073C156.847 430.316 160.517 451.89 164.154 472.743C165.679 481.492 166.924 490.306 169.448 498.837C167.109 499.167 164.756 499.415 162.41 499.694C159.651 490.533 158.39 481.211 157.366 471.729C156.688 465.456 156.336 458.961 154.535 452.885C154.586 464.129 157.541 488.865 160.615 499.853C158.305 500.297 155.961 500.429 153.621 500.619C149.826 487.834 149.165 474.274 148.26 461.046C147.796 454.275 146.913 447.528 146.563 440.751C145.95 428.867 146.599 416.951 147.718 405.12C148.846 393.184 149.966 381.476 150.646 369.508C150.848 365.949 151.532 362.246 151.271 358.701L150.786 359.261C149.669 367.446 149.674 375.434 148.989 383.63C147.906 396.582 143.243 425.834 145.958 437.54C146 437.72 146.047 437.9 146.092 438.08L145.646 438.257L144.77 436.946L145.401 436.675L144.678 436.638C142.122 427.655 141.476 394.84 142.158 384.555C142.399 380.917 144.854 370.708 144.226 368.183C140.447 381.721 141.236 395.09 141.744 408.941C142.017 416.38 142.16 423.85 143.009 431.251C143.863 438.691 145.477 445.976 146.15 453.476C147.479 468.304 147.108 487.45 152.273 501.115L142.251 502.42C140.5 489.435 139.626 476.247 138.497 463.192C136.811 443.683 135.405 424.429 135.284 404.836C135.221 394.718 135.087 384.899 137.062 374.909C142.357 348.116 152.622 326.114 162.468 301.013C163.785 298.264 165.117 295.784 166.889 293.298Z"/>
	<path fill="#FEFEFE" transform="scale(4.80758 4.80758)" d="M201.775 291.092C201.994 289.624 202.141 288.845 203.006 287.585C216.846 296.545 223.194 311.674 229.815 326.093C230.659 327.934 230.905 328.204 232.99 327.83L232.885 329.681C234.087 330.3 234.84 330.665 236.209 330.349C238.991 329.708 241.718 328.148 244.468 327.262C247.236 327.922 252.304 328.819 253.997 331.279C254.782 332.42 254.839 332.881 254.565 334.186C254.551 334.25 254.515 334.307 254.49 334.367C248.04 339.033 241.451 341.707 234.044 344.425C234.028 344.264 234.013 344.102 233.995 343.942C233.828 342.481 233.663 341.734 232.713 340.541L231.9 340.294C230.8 342.162 231.639 345.519 232.18 347.489C233.435 352.057 235.325 356.361 236.235 361.035C236.966 365.243 237.148 369.328 236.961 373.594C235.657 376.784 235.747 379.931 233.594 382.96C230.143 387.817 224.832 391.378 218.931 392.361C209.476 393.936 199.646 390.257 192.09 384.739C185.1 379.636 181.641 375.797 180.333 367.083C180.212 365.982 180.154 364.756 179.706 363.735C179.244 362.683 179.044 362.598 178.054 362.167C176.384 362.876 175.947 363.845 174.876 365.282C173.87 365.903 172.831 366.577 171.705 366.956C169.838 367.584 167.962 367.442 166.218 366.52C161.977 364.277 159.761 358.652 158.518 354.271C158.495 352.941 158.552 351.712 158.784 350.397C159.199 348.046 159.968 345.585 162.058 344.204C164.969 342.279 167.45 343.443 170.535 344.096C171.956 345.819 173.069 347.514 175.409 347.895C176.95 347.524 177.891 346.796 179.126 345.867C189.907 329.584 201.407 311.287 203.77 291.521L201.775 291.092Z"/>
	<path fill="#231F20" transform="scale(4.80758 4.80758)" d="M208.429 321.916C209.406 321.898 210.62 321.79 211.519 322.234C212.637 322.788 213.462 323.997 213.93 325.111C214.781 327.133 214.333 329.294 213.527 331.217C212.114 331.261 210.585 331.384 209.313 330.646C208.041 329.909 207.033 328.737 206.8 327.246C206.47 325.14 207.262 323.584 208.429 321.916Z"/>
	<path fill="#231F20" transform="scale(4.80758 4.80758)" d="M221.025 354.488C221.503 354.677 222.037 354.857 222.452 355.17C223.589 356.028 224.423 357.888 224.316 359.297C224.123 361.833 222.242 363.883 220.237 365.232C216.904 367.475 214.174 367.148 210.383 366.365C209.041 365.832 208.563 365.248 207.656 364.179C208.376 363.048 216.693 365.075 219.154 362.677C221.241 360.642 221.034 357.167 221.025 354.488Z"/>
	<defs>
		<linearGradient id="gradient_6" gradientUnits="userSpaceOnUse" x1="211.06175" y1="311.7493" x2="221.70744" y2="307.20944">
			<stop offset="0" stop-color="#2D2C2B"/>
			<stop offset="1" stop-color="#514242"/>
		</linearGradient>
	</defs>
	<path fill="url(#gradient_6)" transform="scale(4.80758 4.80758)" d="M201.775 291.092C201.994 289.624 202.141 288.845 203.006 287.585C216.846 296.545 223.194 311.674 229.815 326.093C230.659 327.934 230.905 328.204 232.99 327.83L232.885 329.681C231.674 330.042 231.22 330.677 230.458 331.618C230.022 332.156 229.768 332.11 229.12 332.304C226.731 329.397 225.327 324.415 223.687 320.97C218.405 309.871 212.439 300.311 203.77 291.521L201.775 291.092Z"/>
	<path fill="#231F20" transform="scale(4.80758 4.80758)" d="M449.434 447.301C450.777 445.049 452.522 441.242 455.232 440.468C458.382 439.568 463.407 444.323 466.492 445.574C466.687 445.654 466.885 445.728 467.081 445.804C469.397 444.231 471.966 441.994 474.909 442.091C479.021 442.227 488.186 455.645 490.409 459.408C493.192 464.12 495.247 470.241 498.976 474.235C500.396 474.459 501.24 473.84 502.538 473.294C505.534 472.959 508.985 473.58 511.442 475.444C513.29 476.846 514.333 479.129 514.585 481.396C514.938 484.564 513.698 487.714 511.71 490.144C509.997 492.238 507.659 493.756 505.212 494.855C504.178 495.687 504.167 495.749 504.032 497.132C503.476 502.822 504.229 508.698 504.537 514.388C509.317 518.429 513.379 523.427 517.581 528.056C529.733 541.44 542.343 554.724 548.996 571.892C549.917 574.27 551.188 576.967 551.47 579.509C554.729 580.493 558.246 581.31 561.349 582.692C580.615 589.06 617.425 599.215 632.162 610.708C636.852 602.705 643.917 592.156 653.574 589.745C655.39 589.292 657.984 589.091 659.64 590.177C660.824 590.955 661.376 591.782 661.613 593.177C662.291 597.156 658.524 601.79 656.076 604.598C655.404 605.368 654.695 606.082 653.962 606.793L655.149 606.56C655.281 606.692 655.399 606.839 655.544 606.956C657.419 608.464 660.994 609.048 663.276 609.996C668.899 612.33 685.358 620.733 686.672 626.95C686.951 628.269 686.717 628.525 686.046 629.591C683.605 630.97 681.668 630.912 678.94 630.527L681.008 634.784C681.616 636.859 682.304 639.076 681.149 641.097C680.609 642.041 679.814 642.568 678.746 642.823C676.214 643.427 673.596 642.46 671.163 641.813C671.493 644.199 672.857 646.297 672.563 648.734C671.667 650.097 670.751 650.822 669.063 651.014C667.172 651.23 666.096 650.486 664.647 649.427C663.859 648.851 663.151 648.259 662.234 647.899C661.418 647.578 661.791 647.599 660.948 647.982C661.36 649.11 661.883 650.372 661.715 651.599C661.533 652.923 660.805 654.221 659.752 655.04C658.791 655.788 657.519 656.287 656.291 656.06C651.404 655.158 644.935 643.169 642.692 639.178C639.252 633.837 635.513 629.648 630.588 625.634C615.38 620.776 571.992 602.742 558.783 602.487C563.613 620.431 567.246 650.93 563.967 669.247C562.376 678.135 557.218 690.522 552.705 698.35C542.325 716.359 528.944 721.958 510.341 728.874C520.721 749.118 526.486 768.556 525.886 791.487C525.696 798.745 525.183 805.78 522.87 812.714C522.664 813.331 522.424 813.917 522.17 814.516C533.214 814.271 548.938 816.059 558.871 821.128C559.351 822.389 560.188 823.531 559.382 824.824C559.187 825.138 558.699 825.553 558.418 825.809C560.094 827.048 561.867 828.079 562.782 830.012C562.787 830.962 562.784 831.491 562.477 832.407C561.652 833.184 560.799 834.023 559.83 834.618C552.047 839.396 520.072 834.011 511.239 831.659C509.947 831.67 509.732 831.485 508.625 832.243C508.625 833.517 508.97 833.695 509.845 834.613C510.071 834.85 510.321 835.063 510.559 835.288L510.414 835.688C509.318 835.371 508.355 834.957 507.348 834.415C503.378 832.283 499.044 828.569 497.862 824.028C497.386 822.201 497.547 820.321 498.632 818.737C500.28 816.333 503.158 815.998 505.788 815.419Q506.384 813.917 506.854 812.372C508.968 805.635 509.96 798.631 510.597 791.621C512.616 769.407 508.394 757.254 498.288 737.855C497.495 736.415 496.694 735.046 496.216 733.461C478.915 738.949 454.277 740.701 436.768 735.82C435.969 741.862 434.929 748.41 435.258 754.504C435.758 764.068 436.26 773.693 437.611 783.183C439.208 794.407 441.768 805.25 442.693 816.607C444.647 817.761 446.786 818.777 447.495 821.119C447.952 822.63 447.524 824.079 446.644 825.325C445.24 827.312 443.003 828.605 440.975 829.867C439.986 829.006 439.083 828.096 438.174 827.152L436.907 827.799C432.686 830.87 426.457 832.464 421.421 833.607C419.49 834.011 417.595 834.403 415.717 835.017C412.563 835.639 409.536 836.323 406.301 836.166L405.434 836.539C401.908 837.255 396.538 836.201 392.832 836.173C389.375 835.748 384.296 835.022 381.828 832.42C380.78 831.315 380.215 830.309 380.375 828.741C380.441 828.094 380.54 827.448 380.56 826.797C380.567 826.552 380.569 826.308 380.573 826.063C379.466 826.64 379.705 827.119 378.315 827.04L377.618 825.467C379.458 822.251 381.883 820.051 384.982 818.097C395.51 811.461 408.852 811.025 420.751 813.634C423.621 813.474 426.964 814.216 429.843 814.582Q429.49 813.71 429.17 812.825C422.729 795.274 417.032 749.138 424.881 732.169C411.407 730.673 399.26 722.609 389.934 713.258C370.948 694.224 366.929 667.372 367.465 641.51C367.602 634.867 368.459 628.286 368.488 621.631C363.626 623.41 359.081 625.805 354.517 628.225L354.068 627.817C353.21 627.888 352.948 628.035 352.194 628.538C351.204 629.199 350.866 629.085 349.698 629.175C348.7 630.938 347.32 632.643 345.366 633.352C345.192 633.156 344.71 632.604 344.532 632.456C344.281 632.248 344 632.079 343.735 631.891C346.319 628.922 351.839 627.59 353.762 624.485C353.9 624.263 354.021 624.031 354.15 623.805Q357.71 621.779 361.515 620.261Q365.319 618.743 369.296 617.76C369.979 613.463 370.626 609.186 371.704 604.965C360.112 609.855 349.11 615.505 338.506 622.29C332.598 622.569 322.745 634.996 316.779 637.005L317.206 637.026L316.25 635.651C318.344 632.428 322.299 630.831 324.017 627.673C338.337 615.877 355.298 607.17 372.603 600.79C379.335 575.217 387.28 558.677 403.039 537.457C402.772 534.277 402.642 531.098 402.516 527.91C399.62 525.785 397.791 523.768 396.033 520.621C395.894 518.359 395.737 515.692 396.178 513.457C397.004 509.266 399.625 507.483 402.943 505.295C403.018 491.557 408.848 477.298 415.385 465.404C417.673 461.241 422.964 451.58 428.528 452.407C430.308 452.671 432.245 453.754 434.013 453.238C435.639 451.557 435.31 449.45 436.065 447.399C436.539 446.113 437.281 445.423 438.568 444.931C441.845 443.679 446.476 446.048 449.434 447.301Z"/>
	<path fill="#4C484A" transform="scale(4.80758 4.80758)" d="M512.302 704.57L512.769 704.544L512.824 705.052C514.679 705.955 515.459 704.294 517.242 704.98L516.125 706.897C515.04 707.735 514.095 708.438 512.686 708.665C511.313 708.886 510.525 708.479 509.394 707.78L509.217 706.891C510.19 705.874 510.23 705.889 511.629 705.681L512.302 704.57Z"/>
	<path fill="#4C484A" transform="scale(4.80758 4.80758)" d="M438.311 716.674L439.75 716.31L440.186 716.734C438.783 717.78 436.943 718.441 435.355 719.173C435.361 719.995 435.306 720.536 435.137 721.362L434.03 721.675C432.895 721.197 431.713 721.269 430.502 721.244C429.595 721.008 428.954 720.778 428.167 720.265L428.306 719.68C430.263 718.276 432.477 717.712 434.844 717.411C435.796 717.289 436.692 717.197 437.612 716.906C437.846 716.833 438.078 716.752 438.311 716.674Z"/>
	<path fill="#FEFEFE" transform="scale(4.80758 4.80758)" d="M401.874 509.178L402.675 509.543C403.737 512.162 402.732 519.456 402.246 522.366L401.392 522.821C399.746 520.861 398.953 519.114 398.873 516.502C398.785 513.632 399.997 511.252 401.874 509.178Z"/>
	<path fill="#565051" transform="scale(4.80758 4.80758)" d="M551.47 579.509C554.729 580.493 558.246 581.31 561.349 582.692L560.773 583.362C561.425 584.339 562.124 585 562.982 585.788L562.954 587.433C560.214 586.206 556.984 584.328 553.926 584.738C553.781 584.67 553.62 584.627 553.489 584.533C552.24 583.642 551.498 580.959 551.47 579.509Z"/>
	<path fill="#FEFEFE" transform="scale(4.80758 4.80758)" d="M503.426 476.621C505.543 476.426 507.826 476.427 509.676 477.664C510.614 478.292 511.287 479.481 511.392 480.599C511.797 484.922 508.399 488.547 505.611 491.323C504.335 491.492 504.896 491.645 503.907 490.938C502.875 487.219 500.861 482.464 500.828 478.65C501.62 478.126 502.382 477.653 503.069 476.993C503.193 476.874 503.307 476.745 503.426 476.621Z"/>
	<path fill="#FEFEFE" transform="scale(4.80758 4.80758)" d="M426.845 732.678C429.127 733.559 431.498 733.99 433.885 734.493C431.257 743.571 431.403 751.77 431.468 761.14C431.715 770.285 432.918 779.732 434.424 788.752C435.796 796.968 439.273 807.344 438.354 815.547C437.253 816.084 434.877 815.536 433.591 815.405C426.08 794.647 423.064 769.493 424.724 747.457C425.099 742.474 426.056 737.603 426.845 732.678Z"/>
	<path fill="#FEFEFE" transform="scale(4.80758 4.80758)" d="M500.259 735.871C499.658 734.438 499.122 733.91 499.609 732.397C501.558 730.691 505.014 730.282 507.509 729.538C519.366 758.349 527.004 785.39 517.294 816.223C514.424 816.394 511.548 816.636 508.672 816.552C511.061 810.396 513.277 804.343 514.087 797.748C516.828 775.454 514.453 754.089 500.259 735.871Z"/>
	<path fill="#B3B2B2" transform="scale(4.80758 4.80758)" d="M505.871 820.191C514.143 819.321 523.933 819.034 532.153 820.436C540.813 820.331 548.157 823.476 556.369 825.255C557.148 825.752 557.495 825.844 558.418 825.809C560.094 827.048 561.867 828.079 562.782 830.012C562.787 830.962 562.784 831.491 562.477 832.407C561.652 833.184 560.799 834.023 559.83 834.618C552.047 839.396 520.072 834.011 511.239 831.659C509.904 831.025 507.652 830.336 506.957 829.082L508.411 828.468C507.731 828.381 506.899 828.321 506.235 828.105C503.012 827.06 501.904 824.177 500.455 821.428C502.264 821.037 504.067 820.606 505.871 820.191Z"/>
	<path fill="#FEFEFE" transform="scale(4.80758 4.80758)" d="M532.153 820.436C540.813 820.331 548.157 823.476 556.369 825.255C553.324 826.555 548.516 825.94 545.203 825.925C543.737 825.014 542.833 824.847 541.119 824.771C534.686 823.1 526.817 824.201 520.124 823.861C521.174 823.433 522.248 823.33 522.707 822.26C521.85 821.75 522.194 822.065 521.641 821.357C524.55 820.302 529.006 820.622 532.153 820.436Z"/>
	<path fill="#FEFEFE" transform="scale(4.80758 4.80758)" d="M553.926 584.738C556.984 584.328 560.214 586.206 562.954 587.433C568.933 590.159 575.815 591.828 582.053 593.946C598.851 599.649 615.413 605.162 631.117 613.558L627.29 620.82C617.373 616.648 607.305 613.179 597.199 609.51C589.224 606.615 581.212 603.387 572.995 601.235C567.94 599.911 562.705 599.163 557.58 598.131C556.527 594.186 555.618 590.112 554.082 586.323L553.926 584.738Z"/>
	<path fill="#B3B2B2" transform="scale(4.80758 4.80758)" d="M384.23 823.191C384.369 823.07 384.504 822.943 384.648 822.827C393.469 815.7 403.132 815.88 413.854 817.153C414.902 817.24 415.929 817.354 416.982 817.307L419.118 817.925L432.4 819.786C434.662 820.007 436.91 820.242 439.183 820.314C441.048 820.374 443.246 820.491 444.646 821.853C444.584 822.915 444.557 823.022 443.802 823.739C442.359 825.109 439.976 826.305 438.174 827.152L436.907 827.799C432.686 830.87 426.457 832.464 421.421 833.607C419.49 834.011 417.595 834.403 415.717 835.017C412.563 835.639 409.536 836.323 406.301 836.166L405.434 836.539C401.908 837.255 396.538 836.201 392.832 836.173C389.375 835.748 384.296 835.022 381.828 832.42C380.78 831.315 380.215 830.309 380.375 828.741C380.441 828.094 380.54 827.448 380.56 826.797C380.567 826.552 380.569 826.308 380.573 826.063C382.365 825.225 383.058 824.787 384.23 823.191Z"/>
	<path fill="#FEFEFE" transform="scale(4.80758 4.80758)" d="M631.624 624.086L630.751 623.216C631.256 617.837 642.148 601.767 646.439 598.285C649.192 596.05 652.436 593.574 656.069 593.38L657.15 593.909C657.511 599.254 647.578 604.454 651.502 608.224C656.701 613.218 680.384 619.699 681.5 626.969L680.996 627.527C676.52 627.315 665.669 623.03 662.986 624.294L662.53 625.217C664.888 629.974 675.759 630.7 677.482 638.328C676.624 638.779 676.223 639.076 675.234 639.083C668.975 637.566 663.792 630.973 657.706 630.116C657.359 630.654 656.972 630.929 657.107 631.611C657.696 634.579 663.271 638.162 665.71 639.878C666.863 642.208 667.694 644.669 668.582 647.108C663.082 643.997 658.998 639.305 653.697 636.107C652.439 635.348 651.419 634.918 649.982 635.281C649.867 635.61 649.63 635.92 649.637 636.268C649.658 637.253 657.241 646.235 658.343 651.037L657.885 651.409C651.852 649.547 646.73 639.912 643.365 634.877C640.18 630.558 636.511 626.454 631.624 624.086Z"/>
	<path fill="#FEFEFE" transform="scale(4.80758 4.80758)" d="M409.558 553.946C406.441 543.133 404.732 505.893 407.754 495.547C409.337 508.904 413.005 522.514 419.738 534.246C424.841 543.136 432.365 550.797 442.533 553.407C452.818 556.047 474.528 554.3 483.453 548.926C494.752 542.121 500.658 531.902 503.837 519.447Q508.118 525.31 512.017 531.434C511.662 538.246 508.228 542.31 503.353 546.699C492.628 556.355 480.777 560.364 466.613 562.404C459.858 563.454 452.777 564.305 445.932 564.143L443.29 564.023C432.063 563.375 417.707 562.801 409.558 553.946Z"/>
	<path fill="#FEFEFE" transform="scale(4.80758 4.80758)" d="M512.017 531.434L512.607 531.979C513.208 534.822 512.51 536.832 510.948 539.247C509.751 541.097 507.309 543.47 506.969 545.6C508.111 545.776 509.038 545.368 509.954 544.707C512.546 542.835 514.796 537.758 515.141 534.568C515.275 533.33 515.147 532.018 515.049 530.78L515.616 530.756L516.166 531.56C524.489 541.087 532.645 550.199 539.139 561.157C555.888 589.417 562.612 631.442 560.503 663.815C560.258 667.572 559.763 671.412 558.682 675.027C548.472 683.221 524.858 694.375 512.033 698.142C503.9 700.531 495.447 701.657 487.083 702.923C466.104 706.099 445.154 708.734 423.934 706.409C407.702 704.631 393.955 699.117 379.614 691.632C366.335 664.605 371.039 615.026 380.761 586.858C386.077 571.456 393.344 557.651 402.637 544.302C405.369 552.226 405.183 558.351 413.734 562.441C421.579 566.194 432.011 567.58 440.6 567.549C442.502 568.307 444.917 568.09 446.951 568.128C453.042 568.077 459.447 567.009 465.531 566.417C465.498 565.165 466.219 563.591 466.613 562.404C480.777 560.364 492.628 556.355 503.353 546.699C508.228 542.31 511.662 538.246 512.017 531.434Z"/>
	<path fill="#4C484A" transform="scale(4.80758 4.80758)" d="M512.017 531.434L512.607 531.979C513.208 534.822 512.51 536.832 510.948 539.247C509.751 541.097 507.309 543.47 506.969 545.6C508.111 545.776 509.038 545.368 509.954 544.707C512.546 542.835 514.796 537.758 515.141 534.568C515.275 533.33 515.147 532.018 515.049 530.78L515.616 530.756L516.166 531.56C516.627 536.469 515.161 539.566 512.037 543.349C499.943 557.995 483.461 563.219 465.531 566.417C465.498 565.165 466.219 563.591 466.613 562.404C480.777 560.364 492.628 556.355 503.353 546.699C508.228 542.31 511.662 538.246 512.017 531.434Z"/>
</svg>
